<?xml version="1.0" encoding="UTF-8"?>
<!--Generator: Apple Native CoreSVG 123-->
<!DOCTYPE svg
PUBLIC "-//W3C//DTD SVG 1.1//EN"
       "http://www.w3.org/Graphics/SVG/1.1/DTD/svg11.dtd">
<svg version="1.1" xmlns="http://www.w3.org/2000/svg" xmlns:xlink="http://www.w3.org/1999/xlink" width="3300" height="2200">
 <!--glyph: "uni100741.medium", point size: 100.000000, font version: "Version 15.0d7e11", template writer version: "5"-->
 <g id="Notes">
  <rect height="2200" id="artboard" style="fill:white;opacity:1" width="3300" x="0" y="0"/>
  <line id="" style="fill:none;stroke:black;opacity:1;stroke-width:0.5;" x1="263" x2="3036" y1="292" y2="292"/>
  <text style="stroke:none;fill:black;font-family:-apple-system,&quot;SF Pro Display&quot;,&quot;SF Pro Text&quot;,Helvetica,sans-serif;font-weight:bold;" transform="matrix(1 0 0 1 263 322)">Weight/Scale Variations</text>
  <text style="stroke:none;fill:black;font-family:-apple-system,&quot;SF Pro Display&quot;,&quot;SF Pro Text&quot;,Helvetica,sans-serif;text-anchor:middle;" transform="matrix(1 0 0 1 559.711 322)">Ultralight</text>
  <text style="stroke:none;fill:black;font-family:-apple-system,&quot;SF Pro Display&quot;,&quot;SF Pro Text&quot;,Helvetica,sans-serif;text-anchor:middle;" transform="matrix(1 0 0 1 856.422 322)">Thin</text>
  <text style="stroke:none;fill:black;font-family:-apple-system,&quot;SF Pro Display&quot;,&quot;SF Pro Text&quot;,Helvetica,sans-serif;text-anchor:middle;" transform="matrix(1 0 0 1 1153.13 322)">Light</text>
  <text style="stroke:none;fill:black;font-family:-apple-system,&quot;SF Pro Display&quot;,&quot;SF Pro Text&quot;,Helvetica,sans-serif;text-anchor:middle;" transform="matrix(1 0 0 1 1449.84 322)">Regular</text>
  <text style="stroke:none;fill:black;font-family:-apple-system,&quot;SF Pro Display&quot;,&quot;SF Pro Text&quot;,Helvetica,sans-serif;text-anchor:middle;" transform="matrix(1 0 0 1 1746.56 322)">Medium</text>
  <text style="stroke:none;fill:black;font-family:-apple-system,&quot;SF Pro Display&quot;,&quot;SF Pro Text&quot;,Helvetica,sans-serif;text-anchor:middle;" transform="matrix(1 0 0 1 2043.27 322)">Semibold</text>
  <text style="stroke:none;fill:black;font-family:-apple-system,&quot;SF Pro Display&quot;,&quot;SF Pro Text&quot;,Helvetica,sans-serif;text-anchor:middle;" transform="matrix(1 0 0 1 2339.98 322)">Bold</text>
  <text style="stroke:none;fill:black;font-family:-apple-system,&quot;SF Pro Display&quot;,&quot;SF Pro Text&quot;,Helvetica,sans-serif;text-anchor:middle;" transform="matrix(1 0 0 1 2636.69 322)">Heavy</text>
  <text style="stroke:none;fill:black;font-family:-apple-system,&quot;SF Pro Display&quot;,&quot;SF Pro Text&quot;,Helvetica,sans-serif;text-anchor:middle;" transform="matrix(1 0 0 1 2933.4 322)">Black</text>
  <line id="" style="fill:none;stroke:black;opacity:1;stroke-width:0.5;" x1="263" x2="3036" y1="1903" y2="1903"/>
  <g id="" transform="matrix(1 0 0 1 263 1933)">
   <path d="M 9.24805 0.830078 C 13.5547 0.830078 17.1387 -2.74414 17.1387 -7.05078 C 17.1387 -11.3574 13.5449 -14.9316 9.23828 -14.9316 C 4.94141 -14.9316 1.36719 -11.3574 1.36719 -7.05078 C 1.36719 -2.74414 4.95117 0.830078 9.24805 0.830078 Z M 9.24805 -0.654297 C 5.70312 -0.654297 2.87109 -3.49609 2.87109 -7.05078 C 2.87109 -10.6055 5.69336 -13.4473 9.23828 -13.4473 C 12.793 -13.4473 15.6348 -10.6055 15.6445 -7.05078 C 15.6543 -3.49609 12.8027 -0.654297 9.24805 -0.654297 Z M 9.22852 -3.42773 C 9.69727 -3.42773 9.9707 -3.74023 9.9707 -4.25781 L 9.9707 -6.31836 L 12.1973 -6.31836 C 12.6953 -6.31836 13.0371 -6.57227 13.0371 -7.04102 C 13.0371 -7.51953 12.7148 -7.7832 12.1973 -7.7832 L 9.9707 -7.7832 L 9.9707 -10.0098 C 9.9707 -10.5273 9.69727 -10.8496 9.22852 -10.8496 C 8.75977 -10.8496 8.50586 -10.5078 8.50586 -10.0098 L 8.50586 -7.7832 L 6.29883 -7.7832 C 5.78125 -7.7832 5.44922 -7.51953 5.44922 -7.04102 C 5.44922 -6.57227 5.80078 -6.31836 6.29883 -6.31836 L 8.50586 -6.31836 L 8.50586 -4.25781 C 8.50586 -3.75977 8.75977 -3.42773 9.22852 -3.42773 Z"/>
  </g>
  <g id="" transform="matrix(1 0 0 1 281.506 1933)">
   <path d="M 11.709 2.91016 C 17.1582 2.91016 21.6699 -1.60156 21.6699 -7.05078 C 21.6699 -12.4902 17.1484 -17.0117 11.6992 -17.0117 C 6.25977 -17.0117 1.74805 -12.4902 1.74805 -7.05078 C 1.74805 -1.60156 6.26953 2.91016 11.709 2.91016 Z M 11.709 1.25 C 7.09961 1.25 3.41797 -2.44141 3.41797 -7.05078 C 3.41797 -11.6504 7.08984 -15.3516 11.6992 -15.3516 C 16.3086 -15.3516 20 -11.6504 20.0098 -7.05078 C 20.0195 -2.44141 16.3184 1.25 11.709 1.25 Z M 11.6895 -2.41211 C 12.207 -2.41211 12.5195 -2.77344 12.5195 -3.33984 L 12.5195 -6.23047 L 15.5762 -6.23047 C 16.123 -6.23047 16.5039 -6.51367 16.5039 -7.03125 C 16.5039 -7.55859 16.1426 -7.86133 15.5762 -7.86133 L 12.5195 -7.86133 L 12.5195 -10.9277 C 12.5195 -11.5039 12.207 -11.8555 11.6895 -11.8555 C 11.1719 -11.8555 10.8789 -11.4844 10.8789 -10.9277 L 10.8789 -7.86133 L 7.83203 -7.86133 C 7.26562 -7.86133 6.89453 -7.55859 6.89453 -7.03125 C 6.89453 -6.51367 7.28516 -6.23047 7.83203 -6.23047 L 10.8789 -6.23047 L 10.8789 -3.33984 C 10.8789 -2.79297 11.1719 -2.41211 11.6895 -2.41211 Z"/>
  </g>
  <g id="" transform="matrix(1 0 0 1 304.924 1933)">
   <path d="M 14.9707 5.67383 C 21.9336 5.67383 27.6953 -0.078125 27.6953 -7.04102 C 27.6953 -14.0039 21.9238 -19.7559 14.9609 -19.7559 C 8.00781 -19.7559 2.25586 -14.0039 2.25586 -7.04102 C 2.25586 -0.078125 8.01758 5.67383 14.9707 5.67383 Z M 14.9707 3.85742 C 8.93555 3.85742 4.08203 -1.00586 4.08203 -7.04102 C 4.08203 -13.0762 8.92578 -17.9395 14.9609 -17.9395 C 21.0059 -17.9395 25.8594 -13.0762 25.8691 -7.04102 C 25.8789 -1.00586 21.0156 3.85742 14.9707 3.85742 Z M 14.9512 -1.06445 C 15.5176 -1.06445 15.8691 -1.45508 15.8691 -2.06055 L 15.8691 -6.13281 L 20.1074 -6.13281 C 20.6934 -6.13281 21.1133 -6.46484 21.1133 -7.02148 C 21.1133 -7.59766 20.7227 -7.93945 20.1074 -7.93945 L 15.8691 -7.93945 L 15.8691 -12.1875 C 15.8691 -12.8027 15.5176 -13.1934 14.9512 -13.1934 C 14.3848 -13.1934 14.0625 -12.7832 14.0625 -12.1875 L 14.0625 -7.93945 L 9.83398 -7.93945 C 9.21875 -7.93945 8.80859 -7.59766 8.80859 -7.02148 C 8.80859 -6.46484 9.23828 -6.13281 9.83398 -6.13281 L 14.0625 -6.13281 L 14.0625 -2.06055 C 14.0625 -1.47461 14.3848 -1.06445 14.9512 -1.06445 Z"/>
  </g>
  <text style="stroke:none;fill:black;font-family:-apple-system,&quot;SF Pro Display&quot;,&quot;SF Pro Text&quot;,Helvetica,sans-serif;font-weight:bold;" transform="matrix(1 0 0 1 263 1953)">Design Variations</text>
  <text style="stroke:none;fill:black;font-family:-apple-system,&quot;SF Pro Display&quot;,&quot;SF Pro Text&quot;,Helvetica,sans-serif;" transform="matrix(1 0 0 1 263 1971)">Symbols are supported in up to nine weights and three scales.</text>
  <text style="stroke:none;fill:black;font-family:-apple-system,&quot;SF Pro Display&quot;,&quot;SF Pro Text&quot;,Helvetica,sans-serif;" transform="matrix(1 0 0 1 263 1989)">For optimal layout with text and other symbols, vertically align</text>
  <text style="stroke:none;fill:black;font-family:-apple-system,&quot;SF Pro Display&quot;,&quot;SF Pro Text&quot;,Helvetica,sans-serif;" transform="matrix(1 0 0 1 263 2007)">symbols with the adjacent text.</text>
  <rect height="14" id="" style="fill:#00AEEF;stroke:none;opacity:0.4;" width="3" x="776" y="1919"/>
  <g id="" transform="matrix(1 0 0 1 779 1933)">
   <path d="M 10.5273 0 L 12.373 0 L 7.17773 -14.0918 L 5.43945 -14.0918 L 0.244141 0 L 2.08984 0 L 3.50586 -4.0332 L 9.11133 -4.0332 Z M 6.2793 -11.9531 L 6.33789 -11.9531 L 8.59375 -5.52734 L 4.02344 -5.52734 Z"/>
  </g>
  <rect height="14" id="" style="fill:#00AEEF;stroke:none;opacity:0.4;" width="3" x="791.617" y="1919"/>
  <text style="stroke:none;fill:black;font-family:-apple-system,&quot;SF Pro Display&quot;,&quot;SF Pro Text&quot;,Helvetica,sans-serif;font-weight:bold;" transform="matrix(1 0 0 1 776 1953)">Margins</text>
  <text style="stroke:none;fill:black;font-family:-apple-system,&quot;SF Pro Display&quot;,&quot;SF Pro Text&quot;,Helvetica,sans-serif;" transform="matrix(1 0 0 1 776 1971)">Leading and trailing margins on the left and right side of each symbol</text>
  <text style="stroke:none;fill:black;font-family:-apple-system,&quot;SF Pro Display&quot;,&quot;SF Pro Text&quot;,Helvetica,sans-serif;" transform="matrix(1 0 0 1 776 1989)">can be adjusted by modifying the width of the blue rectangles.</text>
  <text style="stroke:none;fill:black;font-family:-apple-system,&quot;SF Pro Display&quot;,&quot;SF Pro Text&quot;,Helvetica,sans-serif;" transform="matrix(1 0 0 1 776 2007)">Modifications are automatically applied proportionally to all</text>
  <text style="stroke:none;fill:black;font-family:-apple-system,&quot;SF Pro Display&quot;,&quot;SF Pro Text&quot;,Helvetica,sans-serif;" transform="matrix(1 0 0 1 776 2025)">scales and weights.</text>
  <g id="" transform="matrix(1 0 0 1 1289 1933)">
   <path d="M 2.83203 3.11523 L 4.375 4.6582 C 5.22461 5.48828 6.19141 5.41992 7.06055 4.46289 L 17.2754 -6.66016 C 17.7051 -6.36719 18.0957 -6.37695 18.5645 -6.47461 L 19.6094 -6.68945 L 20.3027 -5.99609 L 20.2539 -5.47852 C 20.1855 -4.95117 20.3516 -4.53125 20.8496 -4.0332 L 21.6602 -3.22266 C 22.168 -2.71484 22.8223 -2.68555 23.3008 -3.16406 L 26.5527 -6.41602 C 27.0312 -6.89453 27.0117 -7.54883 26.5039 -8.05664 L 25.6836 -8.87695 C 25.1855 -9.375 24.7754 -9.55078 24.2383 -9.47266 L 23.7109 -9.41406 L 23.0566 -10.0781 L 23.3398 -11.2207 C 23.4863 -11.7871 23.3398 -12.2559 22.7148 -12.8613 L 20.3027 -15.2539 C 16.7578 -18.7793 12.2266 -18.6719 9.11133 -15.5371 C 8.69141 -15.1074 8.64258 -14.5215 8.91602 -14.0918 C 9.15039 -13.7207 9.62891 -13.4961 10.2734 -13.6621 C 11.7871 -14.043 13.3008 -13.9258 14.7852 -12.9199 L 14.1602 -11.3379 C 13.9258 -10.752 13.9453 -10.2734 14.1797 -9.83398 L 3.01758 0.439453 C 2.08008 1.30859 1.97266 2.25586 2.83203 3.11523 Z M 10.6738 -15.1465 C 13.3398 -17.1387 16.6504 -16.8262 19.0527 -14.4141 L 21.6797 -11.8066 C 21.9141 -11.5723 21.9434 -11.3867 21.8848 -11.0938 L 21.5039 -9.53125 L 23.0762 -7.95898 L 24.043 -8.04688 C 24.3262 -8.07617 24.4141 -8.05664 24.6387 -7.83203 L 25.2637 -7.20703 L 22.5098 -4.46289 L 21.8848 -5.07812 C 21.6602 -5.30273 21.6406 -5.40039 21.6699 -5.68359 L 21.7578 -6.64062 L 20.1953 -8.20312 L 18.5742 -7.89062 C 18.291 -7.83203 18.1445 -7.83203 17.9102 -8.07617 L 15.7324 -10.2539 C 15.5078 -10.4883 15.4785 -10.625 15.6055 -10.9473 L 16.5527 -13.2227 C 14.9512 -14.7559 12.8418 -15.6055 10.8008 -14.9512 C 10.7129 -14.9219 10.6445 -14.9414 10.6152 -14.9805 C 10.5859 -15.0293 10.5859 -15.0781 10.6738 -15.1465 Z M 4.10156 2.41211 C 3.61328 1.91406 3.78906 1.61133 4.12109 1.30859 L 15.0781 -8.80859 L 16.3086 -7.57812 L 6.15234 3.34961 C 5.84961 3.68164 5.46875 3.7793 5.06836 3.37891 Z"/>
  </g>
  <text style="stroke:none;fill:black;font-family:-apple-system,&quot;SF Pro Display&quot;,&quot;SF Pro Text&quot;,Helvetica,sans-serif;font-weight:bold;" transform="matrix(1 0 0 1 1289 1953)">Exporting</text>
  <text style="stroke:none;fill:black;font-family:-apple-system,&quot;SF Pro Display&quot;,&quot;SF Pro Text&quot;,Helvetica,sans-serif;" transform="matrix(1 0 0 1 1289 1971)">Symbols should be outlined when exporting to ensure the</text>
  <text style="stroke:none;fill:black;font-family:-apple-system,&quot;SF Pro Display&quot;,&quot;SF Pro Text&quot;,Helvetica,sans-serif;" transform="matrix(1 0 0 1 1289 1989)">design is preserved when submitting to Xcode.</text>
  <text id="template-version" style="stroke:none;fill:black;font-family:-apple-system,&quot;SF Pro Display&quot;,&quot;SF Pro Text&quot;,Helvetica,sans-serif;text-anchor:end;" transform="matrix(1 0 0 1 3036 1933)">Template v.1.0</text>
  <text style="stroke:none;fill:black;font-family:-apple-system,&quot;SF Pro Display&quot;,&quot;SF Pro Text&quot;,Helvetica,sans-serif;text-anchor:end;" transform="matrix(1 0 0 1 3036 1951)">Generated from camera.on.rectangle</text>
  <text style="stroke:none;fill:black;font-family:-apple-system,&quot;SF Pro Display&quot;,&quot;SF Pro Text&quot;,Helvetica,sans-serif;text-anchor:end;" transform="matrix(1 0 0 1 3036 1969)">Typeset at 100 points</text>
  <text style="stroke:none;fill:black;font-family:-apple-system,&quot;SF Pro Display&quot;,&quot;SF Pro Text&quot;,Helvetica,sans-serif;" transform="matrix(1 0 0 1 263 726)">Small</text>
  <text style="stroke:none;fill:black;font-family:-apple-system,&quot;SF Pro Display&quot;,&quot;SF Pro Text&quot;,Helvetica,sans-serif;" transform="matrix(1 0 0 1 263 1156)">Medium</text>
  <text style="stroke:none;fill:black;font-family:-apple-system,&quot;SF Pro Display&quot;,&quot;SF Pro Text&quot;,Helvetica,sans-serif;" transform="matrix(1 0 0 1 263 1586)">Large</text>
 </g>
 <g id="Guides">
  <g id="H-reference" style="fill:#27AAE1;stroke:none;" transform="matrix(1 0 0 1 339 696)">
   <path d="M 54.9316 0 L 57.666 0 L 30.5664 -70.459 L 28.0762 -70.459 L 0.976562 0 L 3.66211 0 L 12.9395 -24.4629 L 45.7031 -24.4629 Z M 29.1992 -67.0898 L 29.4434 -67.0898 L 44.8242 -26.709 L 13.8184 -26.709 Z"/>
  </g>
  <line id="Baseline-S" style="fill:none;stroke:#27AAE1;opacity:1;stroke-width:0.577;" x1="263" x2="3036" y1="696" y2="696"/>
  <line id="Capline-S" style="fill:none;stroke:#27AAE1;opacity:1;stroke-width:0.577;" x1="263" x2="3036" y1="625.541" y2="625.541"/>
  <g id="H-reference" style="fill:#27AAE1;stroke:none;" transform="matrix(1 0 0 1 339 1126)">
   <path d="M 54.9316 0 L 57.666 0 L 30.5664 -70.459 L 28.0762 -70.459 L 0.976562 0 L 3.66211 0 L 12.9395 -24.4629 L 45.7031 -24.4629 Z M 29.1992 -67.0898 L 29.4434 -67.0898 L 44.8242 -26.709 L 13.8184 -26.709 Z"/>
  </g>
  <line id="Baseline-M" style="fill:none;stroke:#27AAE1;opacity:1;stroke-width:0.577;" x1="263" x2="3036" y1="1126" y2="1126"/>
  <line id="Capline-M" style="fill:none;stroke:#27AAE1;opacity:1;stroke-width:0.577;" x1="263" x2="3036" y1="1055.54" y2="1055.54"/>
  <g id="H-reference" style="fill:#27AAE1;stroke:none;" transform="matrix(1 0 0 1 339 1556)">
   <path d="M 54.9316 0 L 57.666 0 L 30.5664 -70.459 L 28.0762 -70.459 L 0.976562 0 L 3.66211 0 L 12.9395 -24.4629 L 45.7031 -24.4629 Z M 29.1992 -67.0898 L 29.4434 -67.0898 L 44.8242 -26.709 L 13.8184 -26.709 Z"/>
  </g>
  <line id="Baseline-L" style="fill:none;stroke:#27AAE1;opacity:1;stroke-width:0.577;" x1="263" x2="3036" y1="1556" y2="1556"/>
  <line id="Capline-L" style="fill:none;stroke:#27AAE1;opacity:1;stroke-width:0.577;" x1="263" x2="3036" y1="1485.54" y2="1485.54"/>
  <rect height="119.336" id="left-margin" style="fill:#00AEEF;stroke:none;opacity:0.4;" width="12.4512" x="1367.67" y="1030.79"/>
  <rect height="119.336" id="right-margin" style="fill:#00AEEF;stroke:none;opacity:0.4;" width="12.4512" x="1519.57" y="1030.79"/>
 </g>
 <g id="Symbols">
  <g id="Black-L" transform="matrix(1 0 0 1 2823.66 1556)">
   <path d="M 39.9902 5.37109 L 48.4375 5.37109 L 48.4375 18.9941 C 48.4375 34.1797 57.1289 42.8223 72.3633 42.8223 L 179.541 42.8223 C 194.775 42.8223 203.418 34.1797 203.418 18.9941 L 203.418 -47.5586 C 203.418 -62.7441 194.775 -71.3379 179.541 -71.3379 L 167.139 -71.3379 C 166.406 -71.3379 165.771 -71.3867 165.186 -71.3867 L 165.186 -86.8652 C 165.186 -102.051 156.494 -110.645 141.26 -110.645 L 39.9902 -110.645 C 24.707 -110.645 16.0645 -102.051 16.0645 -86.8652 L 16.0645 -18.4082 C 16.0645 -3.22266 24.707 5.37109 39.9902 5.37109 Z M 42.6758 -14.8438 C 38.4766 -14.8438 36.3281 -16.748 36.3281 -21.2891 L 36.3281 -83.9844 C 36.3281 -88.5254 38.4766 -90.4297 42.6758 -90.4297 L 138.525 -90.4297 C 142.773 -90.4297 144.922 -88.5254 144.922 -83.9844 L 144.922 -83.5938 C 143.066 -84.082 140.967 -84.3262 138.428 -84.3262 L 113.428 -84.3262 C 107.227 -84.3262 103.613 -82.959 99.9023 -79.5898 L 95.1172 -75.1953 C 91.4551 -71.9238 89.5508 -71.3379 84.7656 -71.3379 L 72.3633 -71.3379 C 57.1289 -71.3379 48.4375 -62.7441 48.4375 -47.5586 L 48.4375 -14.8438 Z M 75.0977 22.5586 C 70.8496 22.5586 68.7012 20.7031 68.7012 16.1621 L 68.7012 -44.6777 C 68.7012 -49.2188 70.8496 -51.123 75.0977 -51.123 L 92.041 -51.123 C 97.6562 -51.123 100.195 -51.9531 103.418 -55.3223 L 107.764 -59.7656 C 111.084 -63.1348 113.232 -64.1113 118.652 -64.1113 L 133.252 -64.1113 C 138.623 -64.1113 140.771 -63.0859 143.896 -59.9121 L 148.438 -55.3223 C 151.66 -52.0508 154.199 -51.123 159.814 -51.123 L 176.807 -51.123 C 181.006 -51.123 183.203 -49.2188 183.203 -44.6777 L 183.203 16.1621 C 183.203 20.7031 181.006 22.5586 176.807 22.5586 Z M 125.879 15.332 C 144.092 15.332 158.643 0.732422 158.643 -17.5293 C 158.643 -35.791 144.092 -50.3906 125.879 -50.3906 C 107.715 -50.3906 93.1152 -35.791 93.1152 -17.5293 C 93.1152 0.732422 107.715 15.332 125.879 15.332 Z M 168.311 -27.6367 C 173.242 -27.6367 177.197 -31.5918 177.197 -36.4746 C 177.197 -41.4062 173.242 -45.3613 168.311 -45.3613 C 163.379 -45.3613 159.424 -41.4062 159.424 -36.4746 C 159.424 -31.5918 163.379 -27.6367 168.311 -27.6367 Z M 125.879 -2.00195 C 117.334 -2.00195 110.4 -8.93555 110.4 -17.5293 C 110.4 -26.1719 117.334 -33.0566 125.879 -33.0566 C 134.473 -33.0566 141.357 -26.1719 141.357 -17.5293 C 141.357 -8.93555 134.473 -2.00195 125.879 -2.00195 Z"/>
  </g>
  <g id="Heavy-L" transform="matrix(1 0 0 1 2528.05 1556)">
   <path d="M 38.8184 4.54102 L 47.998 4.54102 L 47.998 18.8965 C 47.998 33.3984 56.1523 41.5039 70.752 41.5039 L 178.467 41.5039 C 193.115 41.5039 201.221 33.3984 201.221 18.8965 L 201.221 -47.5586 C 201.221 -62.1094 193.115 -70.2148 178.467 -70.2148 L 165.332 -70.2148 C 163.916 -70.2148 162.793 -70.2637 161.768 -70.4102 L 161.768 -86.5723 C 161.768 -101.123 153.613 -109.229 139.014 -109.229 L 38.8184 -109.229 C 24.1699 -109.229 16.0645 -101.123 16.0645 -86.5723 L 16.0645 -18.1152 C 16.0645 -3.56445 24.1699 4.54102 38.8184 4.54102 Z M 40.918 -12.9883 C 36.084 -12.9883 33.5938 -15.2832 33.5938 -20.4102 L 33.5938 -84.2773 C 33.5938 -89.4043 36.084 -91.6992 40.918 -91.6992 L 136.914 -91.6992 C 141.699 -91.6992 144.238 -89.4043 144.238 -84.2773 L 144.238 -82.666 C 142.236 -83.3496 139.941 -83.6914 137.012 -83.6914 L 112.061 -83.6914 C 105.811 -83.6914 102.344 -82.2266 98.7305 -78.8574 L 93.8477 -74.1211 C 90.3809 -70.8496 88.5742 -70.2148 83.7402 -70.2148 L 70.752 -70.2148 C 56.1523 -70.2148 47.998 -62.1094 47.998 -47.5586 L 47.998 -12.9883 Z M 72.9004 24.0234 C 68.0664 24.0234 65.5273 21.7285 65.5273 16.6016 L 65.5273 -45.2637 C 65.5273 -50.3906 68.0664 -52.6855 72.9004 -52.6855 L 89.7461 -52.6855 C 95.4102 -52.6855 98.0469 -53.5645 101.27 -56.9824 L 105.762 -61.7188 C 109.131 -65.2344 111.23 -66.1621 116.602 -66.1621 L 132.471 -66.1621 C 137.842 -66.1621 139.941 -65.1855 143.115 -61.8164 L 147.803 -56.9824 C 151.025 -53.6133 153.662 -52.6855 159.326 -52.6855 L 176.367 -52.6855 C 181.152 -52.6855 183.74 -50.3906 183.74 -45.2637 L 183.74 16.6016 C 183.74 21.7285 181.152 24.0234 176.367 24.0234 Z M 124.561 15.918 C 143.018 15.918 157.764 1.12305 157.764 -17.3828 C 157.764 -35.8398 143.018 -50.6348 124.561 -50.6348 C 106.201 -50.6348 91.4062 -35.8398 91.4062 -17.3828 C 91.4062 1.12305 106.201 15.918 124.561 15.918 Z M 167.676 -28.8086 C 172.412 -28.8086 176.221 -32.5684 176.221 -37.2559 C 176.221 -42.041 172.412 -45.8008 167.676 -45.8008 C 162.939 -45.8008 159.131 -42.041 159.131 -37.2559 C 159.131 -32.5684 162.939 -28.8086 167.676 -28.8086 Z M 124.561 0.732422 C 114.648 0.732422 106.543 -7.37305 106.543 -17.3828 C 106.543 -27.4414 114.6 -35.4492 124.561 -35.4492 C 134.619 -35.4492 142.578 -27.4414 142.578 -17.3828 C 142.578 -7.37305 134.619 0.732422 124.561 0.732422 Z"/>
  </g>
  <g id="Bold-L" transform="matrix(1 0 0 1 2232.56 1556)">
   <path d="M 37.5 3.56445 L 47.5098 3.56445 L 47.5098 18.75 C 47.5098 32.5195 55.0781 40.0391 68.9941 40.0391 L 177.344 40.0391 C 191.26 40.0391 198.779 32.5195 198.779 18.75 L 198.779 -47.6074 C 198.779 -61.4258 191.26 -68.8965 177.344 -68.8965 L 163.379 -68.8965 C 160.986 -68.8965 159.375 -69.043 157.959 -69.6289 L 157.959 -86.2793 C 157.959 -100.098 150.391 -107.617 136.475 -107.617 L 37.5 -107.617 C 23.584 -107.617 16.0645 -100.146 16.0645 -86.2793 L 16.0645 -17.7246 C 16.0645 -3.90625 23.584 3.56445 37.5 3.56445 Z M 38.9648 -10.8887 C 33.4473 -10.8887 30.5176 -13.623 30.5176 -19.3848 L 30.5176 -84.6191 C 30.5176 -90.4297 33.4473 -93.1641 38.9648 -93.1641 L 135.059 -93.1641 C 140.527 -93.1641 143.506 -90.4297 143.506 -84.6191 L 143.506 -81.543 C 141.357 -82.5195 138.818 -82.959 135.4 -82.959 L 110.547 -82.959 C 104.248 -82.959 100.928 -81.4453 97.4609 -77.9785 L 92.4805 -72.9004 C 89.209 -69.6289 87.5 -68.8965 82.5684 -68.8965 L 68.9941 -68.8965 C 55.0781 -68.8965 47.5098 -61.4258 47.5098 -47.6074 L 47.5098 -10.8887 Z M 70.4102 25.5859 C 64.9902 25.5859 61.9629 22.8516 61.9629 17.0898 L 61.9629 -45.9473 C 61.9629 -51.709 64.9902 -54.4434 70.4102 -54.4434 L 87.207 -54.4434 C 92.8711 -54.4434 95.6055 -55.3711 98.8281 -58.8379 L 103.516 -63.8672 C 106.982 -67.5781 108.984 -68.5059 114.355 -68.5059 L 131.592 -68.5059 C 136.963 -68.5059 138.965 -67.5293 142.285 -63.9648 L 147.119 -58.8379 C 150.342 -55.3711 153.076 -54.4434 158.74 -54.4434 L 175.879 -54.4434 C 181.348 -54.4434 184.326 -51.709 184.326 -45.9473 L 184.326 17.0898 C 184.326 22.8516 181.348 25.5859 175.879 25.5859 Z M 123.145 16.5527 C 141.797 16.5527 156.787 1.5625 156.787 -17.1875 C 156.787 -35.9375 141.846 -50.9277 123.145 -50.9277 C 104.492 -50.9277 89.502 -35.9375 89.502 -17.1875 C 89.502 1.5625 104.492 16.5527 123.145 16.5527 Z M 166.992 -30.0781 C 171.484 -30.0781 175.098 -33.6914 175.098 -38.1836 C 175.098 -42.6758 171.484 -46.2891 166.992 -46.2891 C 162.5 -46.2891 158.838 -42.6758 158.838 -38.1836 C 158.838 -33.6914 162.5 -30.0781 166.992 -30.0781 Z M 123.145 3.75977 C 111.621 3.75977 102.246 -5.56641 102.246 -17.1875 C 102.246 -28.8086 111.572 -38.1348 123.145 -38.1348 C 134.717 -38.1348 143.994 -28.8086 143.994 -17.1875 C 143.994 -5.56641 134.717 3.75977 123.145 3.75977 Z"/>
  </g>
  <g id="Semibold-L" transform="matrix(1 0 0 1 1936.67 1556)">
   <path d="M 36.6211 2.92969 L 47.2168 2.92969 L 47.2168 18.6035 C 47.2168 31.9336 54.3457 39.0137 67.7734 39.0137 L 176.514 39.0137 C 189.941 39.0137 197.119 31.9336 197.119 18.6035 L 197.119 -47.6074 C 197.119 -60.9375 189.941 -68.0176 176.514 -68.0176 L 162.012 -68.0176 C 158.838 -68.0176 157.031 -68.3105 155.322 -69.3848 L 155.322 -86.084 C 155.322 -99.4141 148.193 -106.494 134.766 -106.494 L 36.6211 -106.494 C 23.1445 -106.494 16.0645 -99.4629 16.0645 -86.084 L 16.0645 -17.4805 C 16.0645 -4.15039 23.1445 2.92969 36.6211 2.92969 Z M 37.5977 -9.42383 C 31.6406 -9.42383 28.418 -12.5 28.418 -18.7012 L 28.418 -84.8633 C 28.418 -91.1133 31.6406 -94.1406 37.5977 -94.1406 L 133.789 -94.1406 C 139.697 -94.1406 142.969 -91.1133 142.969 -84.8633 L 142.969 -80.7129 C 140.723 -81.8848 138.086 -82.4219 134.326 -82.4219 L 109.473 -82.4219 C 103.174 -82.4219 99.9512 -80.8594 96.582 -77.3926 L 91.5039 -72.0215 C 88.3789 -68.7988 86.7188 -68.0176 81.7871 -68.0176 L 67.7734 -68.0176 C 54.3457 -68.0176 47.2168 -60.9375 47.2168 -47.6074 L 47.2168 -9.42383 Z M 68.75 26.709 C 62.8418 26.709 59.5215 23.6328 59.5215 17.3828 L 59.5215 -46.3867 C 59.5215 -52.6367 62.8418 -55.6641 68.75 -55.6641 L 85.4492 -55.6641 C 91.1133 -55.6641 93.9453 -56.5918 97.168 -60.1074 L 102.002 -65.3809 C 105.518 -69.1895 107.422 -70.1172 112.793 -70.1172 L 130.957 -70.1172 C 136.328 -70.1172 138.281 -69.1895 141.699 -65.4297 L 146.631 -60.1074 C 149.854 -56.5918 152.637 -55.6641 158.35 -55.6641 L 175.537 -55.6641 C 181.445 -55.6641 184.766 -52.6367 184.766 -46.3867 L 184.766 17.3828 C 184.766 23.6328 181.445 26.709 175.537 26.709 Z M 122.119 16.9922 C 140.967 16.9922 156.104 1.85547 156.104 -17.041 C 156.104 -35.9863 141.016 -51.0742 122.119 -51.0742 C 103.32 -51.0742 88.1836 -35.9863 88.1836 -17.041 C 88.1836 1.85547 103.32 16.9922 122.119 16.9922 Z M 166.504 -31.0059 C 170.85 -31.0059 174.365 -34.4727 174.365 -38.7695 C 174.365 -43.1641 170.85 -46.6309 166.504 -46.6309 C 162.158 -46.6309 158.643 -43.1641 158.643 -38.7695 C 158.643 -34.4727 162.158 -31.0059 166.504 -31.0059 Z M 122.119 5.85938 C 109.521 5.85938 99.2676 -4.3457 99.2676 -17.041 C 99.2676 -29.7852 109.473 -39.9414 122.119 -39.9414 C 134.766 -39.9414 144.971 -29.7852 144.971 -17.041 C 144.971 -4.3457 134.766 5.85938 122.119 5.85938 Z"/>
  </g>
  <g id="Medium-L" transform="matrix(1 0 0 1 1640.62 1556)">
   <path d="M 35.9375 2.39258 L 46.9238 2.39258 L 46.9238 18.5547 C 46.9238 31.4941 53.7598 38.2812 66.8457 38.2812 L 175.928 38.2812 C 189.014 38.2812 195.801 31.4941 195.801 18.5547 L 195.801 -47.6074 C 195.801 -60.5469 189.014 -67.334 175.928 -67.334 L 160.938 -67.334 C 157.129 -67.334 155.371 -67.7734 153.32 -69.4824 L 153.32 -85.9375 C 153.32 -98.877 146.484 -105.664 133.447 -105.664 L 35.9375 -105.664 C 22.8516 -105.664 16.0645 -98.9258 16.0645 -85.9375 L 16.0645 -17.2852 C 16.0645 -4.3457 22.8516 2.39258 35.9375 2.39258 Z M 36.5723 -8.30078 C 30.2246 -8.30078 26.8066 -11.6211 26.8066 -18.2129 L 26.8066 -85.0586 C 26.8066 -91.6016 30.2246 -94.9219 36.5723 -94.9219 L 132.812 -94.9219 C 139.062 -94.9219 142.578 -91.6016 142.578 -85.0586 L 142.578 -79.9805 C 140.283 -81.3965 137.549 -82.0801 133.496 -82.0801 L 108.691 -82.0801 C 102.344 -82.0801 99.2188 -80.4688 95.8984 -76.9531 L 90.7715 -71.3867 C 87.7441 -68.1641 86.1328 -67.334 81.2012 -67.334 L 66.8457 -67.334 C 53.7598 -67.334 46.9238 -60.5469 46.9238 -47.6074 L 46.9238 -8.30078 Z M 67.4805 27.5391 C 61.2305 27.5391 57.666 24.2188 57.666 17.6758 L 57.666 -46.7285 C 57.666 -53.3203 61.2305 -56.5918 67.4805 -56.5918 L 84.1309 -56.5918 C 89.7949 -56.5918 92.6758 -57.5195 95.8984 -61.084 L 100.83 -66.5527 C 104.395 -70.4102 106.299 -71.3379 111.621 -71.3379 L 130.518 -71.3379 C 135.889 -71.3379 137.793 -70.4102 141.26 -66.5527 L 146.289 -61.084 C 149.463 -57.5195 152.344 -56.5918 158.008 -56.5918 L 175.293 -56.5918 C 181.543 -56.5918 185.059 -53.3203 185.059 -46.7285 L 185.059 17.6758 C 185.059 24.2188 181.543 27.5391 175.293 27.5391 Z M 121.387 17.334 C 140.332 17.334 155.566 2.09961 155.566 -16.9434 C 155.566 -36.0352 140.381 -51.2207 121.387 -51.2207 C 102.393 -51.2207 87.1582 -36.0352 87.1582 -16.9434 C 87.1582 2.09961 102.393 17.334 121.387 17.334 Z M 166.113 -31.6895 C 170.361 -31.6895 173.779 -35.0586 173.779 -39.2578 C 173.779 -43.5059 170.361 -46.9238 166.113 -46.9238 C 161.914 -46.9238 158.496 -43.5059 158.496 -39.2578 C 158.496 -35.0586 161.914 -31.6895 166.113 -31.6895 Z M 121.387 7.4707 C 107.959 7.4707 97.0215 -3.41797 97.0215 -16.9434 C 97.0215 -30.5176 107.91 -41.3574 121.387 -41.3574 C 134.814 -41.3574 145.703 -30.5176 145.703 -16.9434 C 145.703 -3.41797 134.814 7.4707 121.387 7.4707 Z"/>
  </g>
  <g id="Regular-L" transform="matrix(1 0 0 1 1344.74 1556)">
   <path d="M 35.0586 1.75781 L 46.6309 1.75781 L 46.6309 18.457 C 46.6309 30.8594 53.0273 37.2559 65.625 37.2559 L 175.146 37.2559 C 187.744 37.2559 194.141 30.8594 194.141 18.457 L 194.141 -47.6562 C 194.141 -60.0586 187.744 -66.4551 175.146 -66.4551 L 159.619 -66.4551 C 154.932 -66.4551 153.32 -67.1387 150.732 -69.9707 L 150.732 -85.7422 C 150.732 -98.1934 144.336 -104.541 131.738 -104.541 L 35.0586 -104.541 C 22.4121 -104.541 16.0645 -98.2422 16.0645 -85.7422 L 16.0645 -17.041 C 16.0645 -4.54102 22.4121 1.75781 35.0586 1.75781 Z M 35.2539 -6.88477 C 28.418 -6.88477 24.707 -10.498 24.707 -17.5293 L 24.707 -85.3027 C 24.707 -92.2852 28.418 -95.8984 35.2539 -95.8984 L 131.543 -95.8984 C 138.232 -95.8984 142.09 -92.2852 142.09 -85.3027 L 142.09 -79.0039 C 139.697 -80.7617 136.865 -81.543 132.373 -81.543 L 107.617 -81.543 C 101.27 -81.543 98.2422 -79.8828 95.0195 -76.3672 L 89.8438 -70.5566 C 86.9141 -67.334 85.4004 -66.4551 80.4199 -66.4551 L 65.625 -66.4551 C 53.0273 -66.4551 46.6309 -60.0586 46.6309 -47.6562 L 46.6309 -6.88477 Z M 65.7715 28.6133 C 59.082 28.6133 55.2734 25 55.2734 17.9688 L 55.2734 -47.168 C 55.2734 -54.1992 59.082 -57.8125 65.7715 -57.8125 L 82.373 -57.8125 C 88.0859 -57.8125 91.0156 -58.7402 94.2383 -62.3535 L 99.3164 -68.0176 C 102.881 -72.0215 104.736 -72.9004 110.107 -72.9004 L 129.932 -72.9004 C 135.254 -72.9004 137.109 -72.0215 140.723 -68.0176 L 145.801 -62.3535 C 148.975 -58.7402 151.953 -57.8125 157.617 -57.8125 L 174.951 -57.8125 C 181.641 -57.8125 185.498 -54.1992 185.498 -47.168 L 185.498 17.9688 C 185.498 25 181.641 28.6133 174.951 28.6133 Z M 120.361 17.7734 C 139.502 17.7734 154.883 2.44141 154.883 -16.8457 C 154.883 -36.084 139.551 -51.416 120.361 -51.416 C 101.221 -51.416 85.8398 -36.084 85.8398 -16.8457 C 85.8398 2.44141 101.221 17.7734 120.361 17.7734 Z M 165.674 -32.5684 C 169.727 -32.5684 173.047 -35.8398 173.047 -39.8926 C 173.047 -43.9941 169.727 -47.2656 165.674 -47.2656 C 161.621 -47.2656 158.301 -43.9941 158.301 -39.8926 C 158.301 -35.8398 161.621 -32.5684 165.674 -32.5684 Z M 120.361 9.52148 C 105.908 9.52148 94.0918 -2.19727 94.0918 -16.8457 C 94.0918 -31.4453 105.859 -43.1641 120.361 -43.1641 C 134.912 -43.1641 146.68 -31.4453 146.68 -16.8457 C 146.68 -2.19727 134.912 9.52148 120.361 9.52148 Z"/>
  </g>
  <g id="Light-L" transform="matrix(1 0 0 1 1049.32 1556)">
   <path d="M 34.0332 1.70898 L 44.7754 1.70898 L 44.7754 19.043 C 44.7754 30.7129 50.9277 36.8652 62.7441 36.8652 L 173.584 36.8652 C 185.449 36.8652 191.553 30.7129 191.553 19.043 L 191.553 -47.2656 C 191.553 -58.9355 185.449 -65.0879 173.584 -65.0879 L 156.982 -65.0879 C 153.467 -65.0879 151.758 -65.3809 150 -66.6504 L 150 -84.668 C 150 -96.3867 143.848 -102.539 132.031 -102.539 L 34.0332 -102.539 C 22.168 -102.539 16.0645 -96.4844 16.0645 -84.668 L 16.0645 -16.1621 C 16.0645 -4.39453 22.168 1.70898 34.0332 1.70898 Z M 34.1797 -4.93164 C 26.709 -4.93164 22.7051 -8.88672 22.7051 -16.5039 L 22.7051 -84.3262 C 22.7051 -91.9434 26.709 -95.8984 34.1797 -95.8984 L 131.836 -95.8984 C 139.16 -95.8984 143.359 -91.9434 143.359 -84.3262 L 143.359 -73.584 L 141.992 -75.1465 C 138.672 -78.7598 135.889 -80.1758 129.736 -80.1758 L 105.42 -80.1758 C 99.2676 -80.1758 96.4844 -78.7598 93.2129 -75.1465 L 87.8418 -69.1895 C 84.8145 -65.7715 83.3008 -65.0879 78.2227 -65.0879 L 62.7441 -65.0879 C 50.9277 -65.0879 44.7754 -58.9355 44.7754 -47.2656 L 44.7754 -4.93164 Z M 62.9395 30.2734 C 55.6152 30.2734 51.416 26.3184 51.416 18.6523 L 51.416 -46.9238 C 51.416 -54.541 55.6152 -58.4961 62.9395 -58.4961 L 79.4434 -58.4961 C 85.1562 -58.4961 87.9395 -59.2773 91.2598 -62.9395 L 96.5332 -68.8477 C 100.098 -72.8516 101.953 -73.5352 106.982 -73.5352 L 128.174 -73.5352 C 133.203 -73.5352 135.059 -72.8516 138.623 -68.8477 L 143.896 -62.9395 C 147.217 -59.2773 150 -58.4961 155.713 -58.4961 L 173.438 -58.4961 C 180.762 -58.4961 184.961 -54.541 184.961 -46.9238 L 184.961 18.6523 C 184.961 26.3184 180.762 30.2734 173.438 30.2734 Z M 118.164 18.3105 C 137.402 18.3105 152.881 2.88086 152.881 -16.4551 C 152.881 -35.8398 137.5 -51.2695 118.164 -51.2695 C 98.9746 -51.2695 83.4473 -35.8398 83.4473 -16.4551 C 83.4473 2.88086 98.9746 18.3105 118.164 18.3105 Z M 163.477 -32.666 C 167.188 -32.666 170.215 -35.6934 170.215 -39.4043 C 170.215 -43.2129 167.188 -46.1914 163.477 -46.1914 C 159.717 -46.1914 156.689 -43.2129 156.689 -39.4043 C 156.689 -35.6934 159.717 -32.666 163.477 -32.666 Z M 118.164 11.8652 C 102.588 11.8652 89.9414 -0.78125 89.9414 -16.4551 C 89.9414 -32.1777 102.539 -44.8242 118.164 -44.8242 C 133.789 -44.8242 146.436 -32.1777 146.436 -16.4551 C 146.436 -0.78125 133.789 11.8652 118.164 11.8652 Z"/>
  </g>
  <g id="Thin-L" transform="matrix(1 0 0 1 754.298 1556)">
   <path d="M 32.666 1.61133 L 42.3828 1.61133 L 42.3828 19.7754 C 42.3828 30.4688 48.0957 36.377 58.9844 36.377 L 171.582 36.377 C 182.422 36.377 188.184 30.4688 188.184 19.7754 L 188.184 -46.7285 C 188.184 -57.4707 182.422 -63.3301 171.582 -63.3301 L 153.467 -63.3301 C 151.562 -63.3301 150.146 -63.3789 149.023 -63.5742 L 149.023 -83.252 C 149.023 -93.9453 143.262 -99.8535 132.422 -99.8535 L 32.666 -99.8535 C 21.7773 -99.8535 16.0645 -94.0918 16.0645 -83.252 L 16.0645 -14.9902 C 16.0645 -4.15039 21.7773 1.61133 32.666 1.61133 Z M 32.8125 -2.34375 C 24.4141 -2.34375 19.9707 -6.73828 19.9707 -15.1855 L 19.9707 -83.0566 C 19.9707 -91.5039 24.4141 -95.8984 32.8125 -95.8984 L 132.227 -95.8984 C 140.381 -95.8984 145.068 -91.5039 145.068 -83.0566 L 145.068 -65.7715 C 144.629 -66.2109 144.141 -66.748 143.555 -67.3828 L 137.988 -73.584 C 134.57 -77.2949 132.129 -78.3203 126.221 -78.3203 L 102.539 -78.3203 C 96.6309 -78.3203 94.1895 -77.2949 90.7715 -73.584 L 85.2051 -67.3828 C 81.9336 -63.7207 80.5176 -63.3301 75.293 -63.3301 L 58.9844 -63.3301 C 48.0957 -63.3301 42.3828 -57.4707 42.3828 -46.7285 L 42.3828 -2.34375 Z M 59.1309 32.4219 C 50.9766 32.4219 46.2891 28.0273 46.2891 19.5801 L 46.2891 -46.5332 C 46.2891 -55.0293 50.9766 -59.375 59.1309 -59.375 L 75.5371 -59.375 C 81.3477 -59.375 83.8867 -59.9609 87.3047 -63.7695 L 92.8711 -69.9707 C 96.4355 -73.9258 98.2422 -74.3652 102.881 -74.3652 L 125.879 -74.3652 C 130.518 -74.3652 132.324 -73.9258 135.889 -69.9707 L 141.455 -63.7695 C 144.873 -59.9609 147.412 -59.375 153.223 -59.375 L 171.387 -59.375 C 179.541 -59.375 184.229 -55.0293 184.229 -46.5332 L 184.229 19.5801 C 184.229 28.0273 179.541 32.4219 171.387 32.4219 Z M 115.283 19.043 C 134.619 19.043 150.244 3.51562 150.244 -16.0156 C 150.244 -35.498 134.766 -51.0742 115.283 -51.0742 C 95.8984 -51.0742 80.2734 -35.498 80.2734 -16.0156 C 80.2734 3.51562 95.8984 19.043 115.283 19.043 Z M 115.283 14.9902 C 98.1934 14.9902 84.4238 1.12305 84.4238 -16.0156 C 84.4238 -33.1543 98.1934 -47.0215 115.283 -47.0215 C 132.324 -47.0215 146.094 -33.1543 146.094 -16.0156 C 146.094 1.12305 132.324 14.9902 115.283 14.9902 Z M 160.547 -32.8125 C 163.867 -32.8125 166.553 -35.498 166.553 -38.8184 C 166.553 -42.1387 163.867 -44.8242 160.547 -44.8242 C 157.227 -44.8242 154.541 -42.1387 154.541 -38.8184 C 154.541 -35.498 157.227 -32.8125 160.547 -32.8125 Z"/>
  </g>
  <g id="Ultralight-L" transform="matrix(1 0 0 1 458.466 1556)">
   <path d="M 31.9824 1.5625 L 41.1133 1.5625 L 41.1133 20.166 C 41.1133 30.3711 46.6309 36.084 57.0312 36.084 L 170.508 36.084 C 180.908 36.084 186.426 30.3711 186.426 20.166 L 186.426 -46.4844 C 186.426 -56.6895 180.908 -62.4023 170.508 -62.4023 L 151.66 -62.4023 C 150.439 -62.4023 149.414 -62.4023 148.535 -62.4512 L 148.535 -82.5195 C 148.535 -92.7246 142.969 -98.4375 132.617 -98.4375 L 31.9824 -98.4375 C 21.582 -98.4375 16.0645 -92.9199 16.0645 -82.5195 L 16.0645 -14.4043 C 16.0645 -4.00391 21.582 1.5625 31.9824 1.5625 Z M 32.1289 -1.02539 C 23.1934 -1.02539 18.6035 -5.61523 18.6035 -14.502 L 18.6035 -82.4219 C 18.6035 -91.3086 23.1934 -95.8984 32.1289 -95.8984 L 132.471 -95.8984 C 141.016 -95.8984 145.947 -91.3086 145.947 -82.4219 L 145.947 -62.9395 C 144.58 -63.4766 143.408 -64.4531 141.65 -66.4062 L 135.938 -72.7539 C 132.471 -76.5625 130.225 -77.3438 124.414 -77.3438 L 101.074 -77.3438 C 95.2637 -77.3438 93.0176 -76.5625 89.5508 -72.7539 L 83.8379 -66.4062 C 80.5176 -62.6465 79.0527 -62.4023 73.8281 -62.4023 L 57.0312 -62.4023 C 46.6309 -62.4023 41.1133 -56.6895 41.1133 -46.4844 L 41.1133 -1.02539 Z M 57.1777 33.5449 C 48.6328 33.5449 43.6523 28.9551 43.6523 20.0195 L 43.6523 -46.3379 C 43.6523 -55.2246 48.6328 -59.8633 57.1777 -59.8633 L 73.584 -59.8633 C 79.3945 -59.8633 81.7871 -60.3027 85.3027 -64.1602 L 91.0156 -70.5078 C 94.5312 -74.4629 96.3867 -74.8047 100.781 -74.8047 L 124.707 -74.8047 C 129.102 -74.8047 130.957 -74.4629 134.473 -70.5078 L 140.186 -64.1602 C 143.652 -60.3027 146.094 -59.8633 151.904 -59.8633 L 170.361 -59.8633 C 178.955 -59.8633 183.887 -55.2246 183.887 -46.3379 L 183.887 20.0195 C 183.887 28.9551 178.955 33.5449 170.361 33.5449 Z M 113.77 19.4336 C 133.203 19.4336 148.926 3.80859 148.926 -15.7715 C 148.926 -35.3516 133.35 -50.9766 113.77 -50.9766 C 94.3848 -50.9766 78.6621 -35.3516 78.6621 -15.7715 C 78.6621 3.80859 94.3848 19.4336 113.77 19.4336 Z M 113.77 16.5527 C 95.9473 16.5527 81.5918 2.09961 81.5918 -15.7715 C 81.5918 -33.6426 95.9473 -48.0957 113.77 -48.0957 C 131.592 -48.0957 145.947 -33.6426 145.947 -15.7715 C 145.947 2.09961 131.592 16.5527 113.77 16.5527 Z M 159.033 -32.9102 C 162.158 -32.9102 164.648 -35.4004 164.648 -38.4766 C 164.648 -41.6016 162.158 -44.0918 159.033 -44.0918 C 155.957 -44.0918 153.467 -41.6016 153.467 -38.4766 C 153.467 -35.4004 155.957 -32.9102 159.033 -32.9102 Z"/>
  </g>
  <g id="Black-M" transform="matrix(1 0 0 1 2847.56 1126)">
   <path d="M 31.9824 -2.63672 L 37.1582 -2.63672 L 37.1582 7.27539 C 37.1582 19.5312 44.4336 26.8066 56.6895 26.8066 L 139.697 26.8066 C 151.953 26.8066 159.229 19.5312 159.229 7.27539 L 159.229 -44.5312 C 159.229 -56.7871 151.953 -64.0625 139.697 -64.0625 L 132.227 -64.0625 L 132.227 -75 C 132.227 -87.2559 124.951 -94.5312 112.695 -94.5312 L 31.9824 -94.5312 C 19.7266 -94.5312 12.4512 -87.2559 12.4512 -75 L 12.4512 -22.168 C 12.4512 -9.91211 19.7266 -2.63672 31.9824 -2.63672 Z M 34.9121 -20.9473 C 32.0801 -20.9473 30.7617 -22.0215 30.7617 -25.0977 L 30.7617 -72.0703 C 30.7617 -75.1465 32.0801 -76.2695 34.9121 -76.2695 L 109.766 -76.2695 C 112.402 -76.2695 113.77 -75.293 113.916 -72.6074 C 112.158 -73.1934 110.205 -73.4375 107.764 -73.4375 L 88.623 -73.4375 C 83.9355 -73.4375 81.0547 -72.6074 77.9785 -70.0195 L 74.3164 -66.8945 C 71.1914 -64.3066 69.6289 -64.0625 65.8691 -64.0625 L 56.6895 -64.0625 C 44.4336 -64.0625 37.1582 -56.7871 37.1582 -44.5312 L 37.1582 -20.9473 Z M 59.6191 8.54492 C 56.7871 8.54492 55.4688 7.42188 55.4688 4.3457 L 55.4688 -41.6016 C 55.4688 -44.6777 56.7871 -45.752 59.6191 -45.752 L 72.8516 -45.752 C 77.1973 -45.752 78.9551 -46.3379 81.4941 -48.877 L 84.7168 -52.0508 C 87.207 -54.4434 88.9648 -55.127 93.0176 -55.127 L 103.369 -55.127 C 107.422 -55.127 109.18 -54.3945 111.426 -52.2461 L 114.893 -48.877 C 117.48 -46.3867 119.189 -45.752 123.535 -45.752 L 136.768 -45.752 C 139.6 -45.752 140.918 -44.6777 140.918 -41.6016 L 140.918 4.3457 C 140.918 7.42188 139.6 8.54492 136.768 8.54492 Z M 98.1445 3.4668 C 112.012 3.4668 123.096 -7.66602 123.096 -21.5332 C 123.096 -35.4492 112.012 -46.582 98.1445 -46.582 C 84.3262 -46.582 73.1934 -35.4492 73.1934 -21.5332 C 73.1934 -7.66602 84.3262 3.4668 98.1445 3.4668 Z M 130.078 -27.832 C 134.033 -27.832 137.158 -30.957 137.158 -34.8633 C 137.158 -38.7695 134.033 -41.8945 130.078 -41.8945 C 126.172 -41.8945 123.047 -38.7695 123.047 -34.8633 C 123.047 -30.957 126.172 -27.832 130.078 -27.832 Z M 98.1445 -11.9141 C 92.8223 -11.9141 88.5254 -16.2598 88.5254 -21.5332 C 88.5254 -26.9043 92.8223 -31.2012 98.1445 -31.2012 C 103.516 -31.2012 107.715 -26.9043 107.715 -21.5332 C 107.715 -16.2598 103.516 -11.9141 98.1445 -11.9141 Z"/>
  </g>
  <g id="Heavy-M" transform="matrix(1 0 0 1 2551.7 1126)">
   <path d="M 31.0059 -3.56445 L 37.1582 -3.56445 L 37.1582 6.98242 C 37.1582 18.75 43.9453 25.4883 55.7129 25.4883 L 138.965 25.4883 C 150.732 25.4883 157.52 18.75 157.52 6.98242 L 157.52 -44.6777 C 157.52 -56.3965 150.732 -63.1348 138.965 -63.1348 L 129.248 -63.1348 C 129.053 -63.1348 128.857 -63.1348 128.662 -63.1348 L 128.662 -75 C 128.662 -86.7188 121.924 -93.5059 110.156 -93.5059 L 31.0059 -93.5059 C 19.1895 -93.5059 12.4512 -86.7188 12.4512 -75 L 12.4512 -22.0703 C 12.4512 -10.3027 19.1895 -3.56445 31.0059 -3.56445 Z M 33.252 -19.3848 C 29.9316 -19.3848 28.2715 -20.8496 28.2715 -24.3652 L 28.2715 -72.6562 C 28.2715 -76.2207 29.9316 -77.6855 33.252 -77.6855 L 107.861 -77.6855 C 111.182 -77.6855 112.842 -76.2207 112.842 -72.6562 L 112.842 -72.2656 C 111.182 -72.8027 109.326 -73.0469 106.934 -73.0469 L 87.6953 -73.0469 C 82.9102 -73.0469 80.127 -72.1191 77.1973 -69.4824 L 73.4863 -66.1133 C 70.5566 -63.5254 69.0918 -63.1348 65.332 -63.1348 L 55.7129 -63.1348 C 43.9453 -63.1348 37.1582 -56.3965 37.1582 -44.6777 L 37.1582 -19.3848 Z M 57.959 9.66797 C 54.6875 9.66797 52.9785 8.20312 52.9785 4.63867 L 52.9785 -42.334 C 52.9785 -45.8496 54.6875 -47.3145 57.959 -47.3145 L 71.0938 -47.3145 C 75.4883 -47.3145 77.3438 -47.9492 79.8828 -50.5371 L 83.252 -53.9551 C 85.8398 -56.543 87.5 -57.2266 91.6016 -57.2266 L 102.979 -57.2266 C 107.08 -57.2266 108.789 -56.4941 111.133 -54.1016 L 114.697 -50.5371 C 117.236 -47.998 119.092 -47.3145 123.486 -47.3145 L 136.719 -47.3145 C 139.99 -47.3145 141.699 -45.8496 141.699 -42.334 L 141.699 4.63867 C 141.699 8.20312 139.99 9.66797 136.719 9.66797 Z M 97.2656 3.95508 C 111.377 3.95508 122.656 -7.37305 122.656 -21.4844 C 122.656 -35.5469 111.377 -46.875 97.2656 -46.875 C 83.252 -46.875 71.9238 -35.5469 71.9238 -21.4844 C 71.9238 -7.37305 83.252 3.95508 97.2656 3.95508 Z M 129.98 -29.1016 C 133.789 -29.1016 136.816 -32.0801 136.816 -35.8398 C 136.816 -39.6484 133.789 -42.6758 129.98 -42.6758 C 126.172 -42.6758 123.145 -39.6484 123.145 -35.8398 C 123.145 -32.0801 126.172 -29.1016 129.98 -29.1016 Z M 97.2656 -9.52148 C 90.7227 -9.52148 85.4004 -14.8926 85.4004 -21.4844 C 85.4004 -28.0762 90.7227 -33.3984 97.2656 -33.3984 C 103.906 -33.3984 109.18 -28.0762 109.18 -21.4844 C 109.18 -14.8926 103.906 -9.52148 97.2656 -9.52148 Z"/>
  </g>
  <g id="Bold-M" transform="matrix(1 0 0 1 2255.97 1126)">
   <path d="M 29.8828 -4.58984 L 37.1582 -4.58984 L 37.1582 6.64062 C 37.1582 17.8223 43.3594 23.9746 54.5898 23.9746 L 138.135 23.9746 C 149.365 23.9746 155.566 17.8223 155.566 6.64062 L 155.566 -44.8242 C 155.566 -55.957 149.365 -62.1094 138.135 -62.1094 L 127.832 -62.1094 C 126.562 -62.1094 125.586 -62.207 124.707 -62.3535 L 124.707 -75 C 124.707 -86.1328 118.506 -92.334 107.275 -92.334 L 29.8828 -92.334 C 18.6523 -92.334 12.4512 -86.1816 12.4512 -75 L 12.4512 -21.9238 C 12.4512 -10.7422 18.6523 -4.58984 29.8828 -4.58984 Z M 31.3965 -17.6758 C 27.5391 -17.6758 25.5371 -19.4824 25.5371 -23.584 L 25.5371 -73.3398 C 25.5371 -77.3926 27.5391 -79.248 31.3965 -79.248 L 105.762 -79.248 C 109.619 -79.248 111.67 -77.3926 111.67 -73.3398 L 111.67 -71.875 C 110.059 -72.4121 108.252 -72.6562 105.957 -72.6562 L 86.6211 -72.6562 C 81.7871 -72.6562 79.1016 -71.5332 76.3184 -68.8965 L 72.5586 -65.1855 C 69.873 -62.6465 68.5059 -62.1094 64.7461 -62.1094 L 54.5898 -62.1094 C 43.3594 -62.1094 37.1582 -55.957 37.1582 -44.8242 L 37.1582 -17.6758 Z M 56.1035 10.9375 C 52.2949 10.9375 50.2441 9.08203 50.2441 4.98047 L 50.2441 -43.1152 C 50.2441 -47.2168 52.2949 -49.0723 56.1035 -49.0723 L 69.1895 -49.0723 C 73.5352 -49.0723 75.5859 -49.7559 78.125 -52.3926 L 81.6406 -56.1035 C 84.2773 -58.8867 85.8398 -59.6191 90.0391 -59.6191 L 102.539 -59.6191 C 106.689 -59.6191 108.301 -58.8379 110.84 -56.2012 L 114.453 -52.3926 C 116.992 -49.7559 119.043 -49.0723 123.389 -49.0723 L 136.621 -49.0723 C 140.43 -49.0723 142.48 -47.2168 142.48 -43.1152 L 142.48 4.98047 C 142.48 9.08203 140.43 10.9375 136.621 10.9375 Z M 96.3379 4.49219 C 110.645 4.49219 122.119 -6.98242 122.119 -21.3379 C 122.119 -35.7422 110.693 -47.2168 96.3379 -47.2168 C 82.0312 -47.2168 70.5566 -35.7422 70.5566 -21.3379 C 70.5566 -6.98242 82.0312 4.49219 96.3379 4.49219 Z M 129.883 -30.4688 C 133.496 -30.4688 136.426 -33.3496 136.426 -36.9629 C 136.426 -40.625 133.496 -43.5059 129.883 -43.5059 C 126.221 -43.5059 123.291 -40.625 123.291 -36.9629 C 123.291 -33.3496 126.221 -30.4688 129.883 -30.4688 Z M 96.3379 -6.88477 C 88.3789 -6.88477 81.9336 -13.3301 81.9336 -21.3379 C 81.9336 -29.3945 88.3789 -35.8398 96.3379 -35.8398 C 104.346 -35.8398 110.742 -29.3945 110.742 -21.3379 C 110.742 -13.3301 104.346 -6.88477 96.3379 -6.88477 Z"/>
  </g>
  <g id="Semibold-M" transform="matrix(1 0 0 1 1959.92 1126)">
   <path d="M 29.1016 -5.27344 L 37.1582 -5.27344 L 37.1582 6.44531 C 37.1582 17.1875 42.9688 22.9492 53.8086 22.9492 L 137.598 22.9492 C 148.438 22.9492 154.248 17.1875 154.248 6.44531 L 154.248 -44.9219 C 154.248 -55.6641 148.438 -61.4258 137.598 -61.4258 L 126.904 -61.4258 C 124.658 -61.4258 123.242 -61.6211 122.021 -62.3047 L 122.021 -75 C 122.021 -85.7422 116.162 -91.5039 105.322 -91.5039 L 29.1016 -91.5039 C 18.2617 -91.5039 12.4512 -85.7422 12.4512 -75 L 12.4512 -21.8262 C 12.4512 -11.0352 18.2617 -5.27344 29.1016 -5.27344 Z M 30.127 -16.4551 C 25.8789 -16.4551 23.6328 -18.6035 23.6328 -23.0469 L 23.6328 -73.7793 C 23.6328 -78.2227 25.8789 -80.3223 30.127 -80.3223 L 104.297 -80.3223 C 108.496 -80.3223 110.84 -78.2227 110.84 -73.7793 L 110.84 -71.582 C 109.326 -72.168 107.52 -72.4121 105.273 -72.4121 L 85.8887 -72.4121 C 81.0059 -72.4121 78.3691 -71.1426 75.7324 -68.5059 L 71.875 -64.5508 C 69.4336 -62.0605 68.0664 -61.4258 64.3066 -61.4258 L 53.8086 -61.4258 C 42.9688 -61.4258 37.1582 -55.6641 37.1582 -44.9219 L 37.1582 -16.4551 Z M 54.834 11.7676 C 50.6348 11.7676 48.3398 9.66797 48.3398 5.22461 L 48.3398 -43.7012 C 48.3398 -48.1445 50.6348 -50.2441 54.834 -50.2441 L 67.8711 -50.2441 C 72.2168 -50.2441 74.4141 -50.9766 76.8555 -53.6621 L 80.5176 -57.5684 C 83.2031 -60.4492 84.7168 -61.2305 88.9648 -61.2305 L 102.197 -61.2305 C 106.445 -61.2305 108.008 -60.4492 110.596 -57.666 L 114.307 -53.6621 C 116.797 -51.0254 118.945 -50.2441 123.34 -50.2441 L 136.572 -50.2441 C 140.771 -50.2441 143.066 -48.1445 143.066 -43.7012 L 143.066 5.22461 C 143.066 9.66797 140.771 11.7676 136.572 11.7676 Z M 95.7031 4.88281 C 110.156 4.88281 121.777 -6.73828 121.777 -21.2891 C 121.777 -35.8398 110.205 -47.4609 95.7031 -47.4609 C 81.2012 -47.4609 69.5801 -35.8398 69.5801 -21.2891 C 69.5801 -6.73828 81.2012 4.88281 95.7031 4.88281 Z M 129.785 -31.4453 C 133.301 -31.4453 136.133 -34.2285 136.133 -37.7441 C 136.133 -41.3086 133.301 -44.0918 129.785 -44.0918 C 126.27 -44.0918 123.389 -41.3086 123.389 -37.7441 C 123.389 -34.2285 126.27 -31.4453 129.785 -31.4453 Z M 95.7031 -5.07812 C 86.7676 -5.07812 79.4922 -12.3047 79.4922 -21.2891 C 79.4922 -30.3223 86.7188 -37.5 95.7031 -37.5 C 104.639 -37.5 111.865 -30.3223 111.865 -21.2891 C 111.865 -12.3047 104.639 -5.07812 95.7031 -5.07812 Z"/>
  </g>
  <g id="Medium-M" transform="matrix(1 0 0 1 1663.72 1126)">
   <path d="M 28.5156 -5.81055 L 37.1582 -5.81055 L 37.1582 6.25 C 37.1582 16.6992 42.6758 22.168 53.2227 22.168 L 137.158 22.168 C 147.705 22.168 153.223 16.6992 153.223 6.25 L 153.223 -44.9707 C 153.223 -55.4199 147.705 -60.8887 137.158 -60.8887 L 126.172 -60.8887 C 123.047 -60.8887 121.631 -61.3281 119.922 -62.8418 L 119.922 -75 C 119.922 -85.4492 114.404 -90.918 103.857 -90.918 L 28.5156 -90.918 C 17.9199 -90.918 12.4512 -85.4492 12.4512 -75 L 12.4512 -21.7285 C 12.4512 -11.2793 17.9199 -5.81055 28.5156 -5.81055 Z M 29.1504 -15.5762 C 24.6582 -15.5762 22.168 -17.9199 22.168 -22.6074 L 22.168 -74.1211 C 22.168 -78.8574 24.6582 -81.1523 29.1504 -81.1523 L 103.223 -81.1523 C 107.666 -81.1523 110.205 -78.8574 110.205 -74.1211 L 110.205 -71.3867 C 108.74 -71.9238 106.982 -72.2168 104.785 -72.2168 L 85.3516 -72.2168 C 80.3711 -72.2168 77.832 -70.8496 75.293 -68.1641 L 71.3867 -64.0625 C 69.043 -61.5723 67.7734 -60.8887 63.9648 -60.8887 L 53.2227 -60.8887 C 42.6758 -60.8887 37.1582 -55.4199 37.1582 -44.9707 L 37.1582 -15.5762 Z M 53.8574 12.4512 C 49.4141 12.4512 46.9238 10.1074 46.9238 5.41992 L 46.9238 -44.0918 C 46.9238 -48.8281 49.4141 -51.1719 53.8574 -51.1719 L 66.8457 -51.1719 C 71.2402 -51.1719 73.4863 -51.9043 75.9277 -54.6387 L 79.6387 -58.6914 C 82.373 -61.6699 83.8867 -62.4512 88.1348 -62.4512 L 102.002 -62.4512 C 106.25 -62.4512 107.764 -61.6699 110.449 -58.7402 L 114.209 -54.6387 C 116.65 -51.9531 118.896 -51.1719 123.291 -51.1719 L 136.523 -51.1719 C 141.016 -51.1719 143.506 -48.8281 143.506 -44.0918 L 143.506 5.41992 C 143.506 10.1074 141.016 12.4512 136.523 12.4512 Z M 95.166 5.17578 C 109.814 5.17578 121.533 -6.54297 121.533 -21.2402 C 121.533 -35.9375 109.814 -47.6562 95.166 -47.6562 C 80.5664 -47.6562 68.8477 -35.9375 68.8477 -21.2402 C 68.8477 -6.54297 80.5664 5.17578 95.166 5.17578 Z M 129.736 -32.1289 C 133.154 -32.1289 135.938 -34.9121 135.938 -38.3301 C 135.938 -41.7969 133.154 -44.5801 129.736 -44.5801 C 126.27 -44.5801 123.486 -41.7969 123.486 -38.3301 C 123.486 -34.9121 126.27 -32.1289 129.736 -32.1289 Z M 95.166 -3.66211 C 85.5469 -3.66211 77.6855 -11.5234 77.6855 -21.2402 C 77.6855 -31.0059 85.498 -38.7695 95.166 -38.7695 C 104.883 -38.7695 112.695 -31.0059 112.695 -21.2402 C 112.695 -11.5234 104.883 -3.66211 95.166 -3.66211 Z"/>
  </g>
  <g id="Regular-M" transform="matrix(1 0 0 1 1367.67 1126)">
   <path d="M 27.7832 -6.54297 L 37.1582 -6.54297 L 37.1582 6.05469 C 37.1582 16.1133 42.2852 21.1914 52.4902 21.1914 L 136.621 21.1914 C 146.777 21.1914 151.904 16.1133 151.904 6.05469 L 151.904 -45.0684 C 151.904 -55.127 146.777 -60.2051 136.621 -60.2051 L 125.195 -60.2051 C 121.387 -60.2051 120.215 -60.9375 118.018 -63.4277 L 117.236 -64.2578 L 117.236 -75 C 117.236 -85.0586 112.109 -90.1367 101.904 -90.1367 L 27.7832 -90.1367 C 17.5293 -90.1367 12.4512 -85.0586 12.4512 -75 L 12.4512 -21.6309 C 12.4512 -11.5723 17.5293 -6.54297 27.7832 -6.54297 Z M 27.8809 -14.4043 C 22.998 -14.4043 20.3125 -16.9922 20.3125 -22.0703 L 20.3125 -74.5605 C 20.3125 -79.6387 22.998 -82.2754 27.8809 -82.2754 L 101.807 -82.2754 C 106.592 -82.2754 109.375 -79.6387 109.375 -74.5605 L 109.375 -71.1426 C 107.959 -71.6797 106.25 -71.9238 104.102 -71.9238 L 84.668 -71.9238 C 79.5898 -71.9238 77.0996 -70.459 74.707 -67.7734 L 70.752 -63.4277 C 68.6035 -60.9863 67.3828 -60.2051 63.5742 -60.2051 L 52.4902 -60.2051 C 42.2852 -60.2051 37.1582 -55.127 37.1582 -45.0684 L 37.1582 -14.4043 Z M 52.5879 13.3301 C 47.8027 13.3301 45.0195 10.6934 45.0195 5.61523 L 45.0195 -44.6777 C 45.0195 -49.707 47.8027 -52.3438 52.5879 -52.3438 L 65.5273 -52.3438 C 69.9219 -52.3438 72.2656 -53.1738 74.707 -55.9082 L 78.5645 -60.1562 C 81.3477 -63.2812 82.7637 -64.0625 87.1094 -64.0625 L 101.66 -64.0625 C 106.006 -64.0625 107.422 -63.2812 110.205 -60.1562 L 114.062 -55.9082 C 116.504 -53.1738 118.848 -52.3438 123.242 -52.3438 L 136.475 -52.3438 C 141.309 -52.3438 144.043 -49.707 144.043 -44.6777 L 144.043 5.61523 C 144.043 10.6934 141.309 13.3301 136.475 13.3301 Z M 94.5312 5.51758 C 109.326 5.51758 121.191 -6.29883 121.191 -21.1914 C 121.191 -36.0352 109.326 -47.8516 94.5312 -47.8516 C 79.7852 -47.8516 67.9199 -36.0352 67.9199 -21.1914 C 67.9199 -6.29883 79.7852 5.51758 94.5312 5.51758 Z M 129.639 -33.1055 C 132.959 -33.1055 135.693 -35.791 135.693 -39.1113 C 135.693 -42.4805 132.959 -45.166 129.639 -45.166 C 126.318 -45.166 123.584 -42.4805 123.584 -39.1113 C 123.584 -35.791 126.318 -33.1055 129.639 -33.1055 Z M 94.5312 -1.9043 C 83.9355 -1.9043 75.293 -10.4492 75.293 -21.1914 C 75.293 -31.8848 83.8867 -40.4297 94.5312 -40.4297 C 105.176 -40.4297 113.818 -31.8848 113.818 -21.1914 C 113.818 -10.4492 105.176 -1.9043 94.5312 -1.9043 Z"/>
  </g>
  <g id="Light-M" transform="matrix(1 0 0 1 1072.1 1126)">
   <path d="M 26.8555 -6.5918 L 35.5469 -6.5918 L 35.5469 6.54297 C 35.5469 15.9668 40.3809 20.8008 49.9023 20.8008 L 135.205 20.8008 C 144.727 20.8008 149.609 15.9668 149.609 6.54297 L 149.609 -44.7266 C 149.609 -54.1016 144.727 -58.9844 135.205 -58.9844 L 122.803 -58.9844 C 119.58 -58.9844 118.262 -59.375 116.553 -60.9863 L 116.553 -74.0234 C 116.553 -83.3984 111.719 -88.2812 102.197 -88.2812 L 26.8555 -88.2812 C 17.2852 -88.2812 12.4512 -83.4961 12.4512 -74.0234 L 12.4512 -20.8496 C 12.4512 -11.377 17.2852 -6.5918 26.8555 -6.5918 Z M 26.9531 -12.6465 C 21.4844 -12.6465 18.5059 -15.5273 18.5059 -21.1914 L 18.5059 -73.7305 C 18.5059 -79.3457 21.4844 -82.2754 26.9531 -82.2754 L 102.051 -82.2754 C 107.422 -82.2754 110.547 -79.3457 110.547 -73.7305 L 110.547 -67.5781 C 108.301 -69.7266 106.055 -70.7031 101.709 -70.7031 L 82.7148 -70.7031 C 77.832 -70.7031 75.5371 -69.4824 73.0469 -66.6992 L 68.9941 -62.1582 C 66.6504 -59.5703 65.4785 -58.9844 61.5723 -58.9844 L 49.9023 -58.9844 C 40.3809 -58.9844 35.5469 -54.1016 35.5469 -44.7266 L 35.5469 -12.6465 Z M 50.0488 14.7949 C 44.6777 14.7949 41.5527 11.8652 41.5527 6.25 L 41.5527 -44.3848 C 41.5527 -50.0488 44.6777 -52.9297 50.0488 -52.9297 L 62.8906 -52.9297 C 67.2852 -52.9297 69.5312 -53.6133 72.0703 -56.4453 L 76.0742 -60.9375 C 78.8086 -64.0137 80.2734 -64.6484 84.3262 -64.6484 L 100.098 -64.6484 C 104.15 -64.6484 105.566 -64.0137 108.35 -60.9375 L 112.354 -56.4453 C 114.893 -53.6133 117.09 -52.9297 121.533 -52.9297 L 135.107 -52.9297 C 140.479 -52.9297 143.604 -50.0488 143.604 -44.3848 L 143.604 6.25 C 143.604 11.8652 140.479 14.7949 135.107 14.7949 Z M 92.5781 6.00586 C 107.422 6.00586 119.385 -5.9082 119.385 -20.8496 C 119.385 -35.791 107.471 -47.7539 92.5781 -47.7539 C 77.7344 -47.7539 65.7715 -35.791 65.7715 -20.8496 C 65.7715 -5.9082 77.7344 6.00586 92.5781 6.00586 Z M 127.637 -33.2031 C 130.713 -33.2031 133.154 -35.6445 133.154 -38.6719 C 133.154 -41.748 130.713 -44.1895 127.637 -44.1895 C 124.609 -44.1895 122.119 -41.748 122.119 -38.6719 C 122.119 -35.6445 124.609 -33.2031 127.637 -33.2031 Z M 92.5781 0.244141 C 80.957 0.244141 71.5332 -9.17969 71.5332 -20.8496 C 71.5332 -32.5195 80.957 -41.9434 92.5781 -41.9434 C 104.199 -41.9434 113.574 -32.5195 113.574 -20.8496 C 113.574 -9.17969 104.199 0.244141 92.5781 0.244141 Z"/>
  </g>
  <g id="Thin-M" transform="matrix(1 0 0 1 776.906 1126)">
   <path d="M 25.6348 -6.68945 L 33.3496 -6.68945 L 33.3496 7.22656 C 33.3496 15.7715 37.8906 20.3613 46.5332 20.3613 L 133.398 20.3613 C 142.041 20.3613 146.582 15.7715 146.582 7.22656 L 146.582 -44.2871 C 146.582 -52.7832 142.041 -57.373 133.398 -57.373 L 119.678 -57.373 C 117.871 -57.373 116.699 -57.4219 115.723 -57.7637 L 115.723 -72.7539 C 115.723 -81.25 111.182 -85.8887 102.539 -85.8887 L 25.6348 -85.8887 C 16.9922 -85.8887 12.4512 -81.3965 12.4512 -72.7539 L 12.4512 -19.8242 C 12.4512 -11.1816 16.9922 -6.68945 25.6348 -6.68945 Z M 25.7324 -10.3027 C 19.3848 -10.3027 16.0645 -13.623 16.0645 -19.9707 L 16.0645 -72.5586 C 16.0645 -78.9551 19.3848 -82.2754 25.7324 -82.2754 L 102.393 -82.2754 C 108.545 -82.2754 112.061 -78.9551 112.061 -72.5586 L 112.061 -60.5469 L 107.812 -65.2832 C 105.176 -68.1641 103.223 -68.9941 98.584 -68.9941 L 80.127 -68.9941 C 75.4395 -68.9941 73.4863 -68.1641 70.8496 -65.2832 L 66.6016 -60.5469 C 64.1113 -57.7637 62.9883 -57.373 58.9844 -57.373 L 46.5332 -57.373 C 37.8906 -57.373 33.3496 -52.7832 33.3496 -44.2871 L 33.3496 -10.3027 Z M 46.6309 16.748 C 40.5273 16.748 36.9629 13.4277 36.9629 7.03125 L 36.9629 -44.0918 C 36.9629 -50.4395 40.5273 -53.7598 46.6309 -53.7598 L 59.4238 -53.7598 C 63.8672 -53.7598 65.8691 -54.248 68.5059 -57.1777 L 72.7539 -61.9141 C 75.5371 -64.9902 76.9531 -65.3809 80.6152 -65.3809 L 98.0469 -65.3809 C 101.709 -65.3809 103.174 -64.9902 105.908 -61.9141 L 110.156 -57.1777 C 112.793 -54.248 114.795 -53.7598 119.287 -53.7598 L 133.301 -53.7598 C 139.404 -53.7598 142.969 -50.4395 142.969 -44.0918 L 142.969 7.03125 C 142.969 13.4277 139.404 16.748 133.301 16.748 Z M 89.9414 6.68945 C 104.932 6.68945 117.041 -5.37109 117.041 -20.459 C 117.041 -35.498 105.029 -47.5586 89.9414 -47.5586 C 75 -47.5586 62.8906 -35.498 62.8906 -20.459 C 62.8906 -5.37109 75 6.68945 89.9414 6.68945 Z M 89.9414 3.02734 C 77.0508 3.02734 66.6016 -7.4707 66.6016 -20.459 C 66.6016 -33.3984 77.0508 -43.8965 89.9414 -43.8965 C 102.881 -43.8965 113.281 -33.3984 113.281 -20.459 C 113.281 -7.4707 102.881 3.02734 89.9414 3.02734 Z M 125.049 -33.3496 C 127.734 -33.3496 129.883 -35.4492 129.883 -38.1348 C 129.883 -40.8203 127.734 -42.9688 125.049 -42.9688 C 122.363 -42.9688 120.215 -40.8203 120.215 -38.1348 C 120.215 -35.4492 122.363 -33.3496 125.049 -33.3496 Z"/>
  </g>
  <g id="Ultralight-M" transform="matrix(1 0 0 1 480.976 1126)">
   <path d="M 25 -6.73828 L 32.2266 -6.73828 L 32.2266 7.56836 C 32.2266 15.6738 36.5723 20.1172 44.7754 20.1172 L 132.471 20.1172 C 140.674 20.1172 145.02 15.6738 145.02 7.56836 L 145.02 -44.043 C 145.02 -52.0996 140.674 -56.5918 132.471 -56.5918 L 118.066 -56.5918 C 116.943 -56.5918 116.016 -56.5918 115.234 -56.6406 L 115.234 -72.1191 C 115.234 -80.1758 110.889 -84.668 102.734 -84.668 L 25 -84.668 C 16.7969 -84.668 12.4512 -80.2734 12.4512 -72.1191 L 12.4512 -19.2383 C 12.4512 -11.084 16.7969 -6.73828 25 -6.73828 Z M 25.0977 -9.13086 C 18.3594 -9.13086 14.8438 -12.5977 14.8438 -19.3848 L 14.8438 -71.9727 C 14.8438 -78.7598 18.3594 -82.2754 25.0977 -82.2754 L 102.588 -82.2754 C 109.082 -82.2754 112.842 -78.7598 112.842 -71.9727 L 112.842 -57.4219 C 112.109 -57.8613 111.328 -58.5938 110.352 -59.668 L 105.957 -64.5508 C 103.271 -67.4805 101.514 -68.1641 96.9727 -68.1641 L 78.7598 -68.1641 C 74.2188 -68.1641 72.4609 -67.4805 69.7754 -64.5508 L 65.3809 -59.668 C 62.8418 -56.7871 61.7188 -56.5918 57.666 -56.5918 L 44.7754 -56.5918 C 36.5723 -56.5918 32.2266 -52.0996 32.2266 -44.043 L 32.2266 -9.13086 Z M 44.9219 17.7246 C 38.3789 17.7246 34.6191 14.209 34.6191 7.4707 L 34.6191 -43.8965 C 34.6191 -50.6836 38.3789 -54.1992 44.9219 -54.1992 L 57.6172 -54.1992 C 62.1094 -54.1992 64.0137 -54.541 66.6992 -57.5195 L 71.0938 -62.4023 C 73.8281 -65.4785 75.2441 -65.7715 78.7598 -65.7715 L 97.0215 -65.7715 C 100.488 -65.7715 101.904 -65.4785 104.639 -62.4023 L 109.033 -57.5195 C 111.719 -54.541 113.623 -54.1992 118.115 -54.1992 L 132.373 -54.1992 C 138.867 -54.1992 142.627 -50.6836 142.627 -43.8965 L 142.627 7.4707 C 142.627 14.209 138.867 17.7246 132.373 17.7246 Z M 88.623 7.03125 C 103.662 7.03125 115.82 -5.07812 115.82 -20.2148 C 115.82 -35.3516 103.76 -47.4609 88.623 -47.4609 C 73.584 -47.4609 61.4258 -35.3516 61.4258 -20.2148 C 61.4258 -5.07812 73.584 7.03125 88.623 7.03125 Z M 88.623 4.44336 C 75.0488 4.44336 64.1113 -6.5918 64.1113 -20.2148 C 64.1113 -33.8867 75.0488 -44.873 88.623 -44.873 C 102.197 -44.873 113.135 -33.8867 113.135 -20.2148 C 113.135 -6.5918 102.197 4.44336 88.623 4.44336 Z M 123.73 -33.3984 C 126.172 -33.3984 128.174 -35.4004 128.174 -37.8418 C 128.174 -40.332 126.172 -42.334 123.73 -42.334 C 121.24 -42.334 119.238 -40.332 119.238 -37.8418 C 119.238 -35.4004 121.24 -33.3984 123.73 -33.3984 Z"/>
  </g>
  <g id="Black-S" transform="matrix(1 0 0 1 2866.19 696)">
   <path d="M 25 -9.76562 L 29.1504 -9.76562 L 29.1504 -1.95312 C 29.1504 7.61719 34.8145 13.2812 44.3848 13.2812 L 109.424 13.2812 C 118.994 13.2812 124.658 7.61719 124.658 -1.95312 L 124.658 -42.5293 C 124.658 -52.0996 118.994 -57.7637 109.424 -57.7637 L 103.32 -57.7637 L 103.32 -66.4062 C 103.32 -75.9766 97.6562 -81.6406 88.0859 -81.6406 L 25 -81.6406 C 15.4297 -81.6406 9.76562 -75.9766 9.76562 -66.4062 L 9.76562 -25 C 9.76562 -15.4297 15.4297 -9.76562 25 -9.76562 Z M 27.2461 -23.9258 C 25 -23.9258 23.9258 -24.8047 23.9258 -27.2461 L 23.9258 -64.1602 C 23.9258 -66.6016 25 -67.4805 27.2461 -67.4805 L 85.8398 -67.4805 C 87.9883 -67.4805 89.0625 -66.6992 89.1602 -64.5508 C 87.793 -64.9902 86.2793 -65.1367 84.4238 -65.1367 L 69.3848 -65.1367 C 65.7227 -65.1367 63.4766 -64.502 61.084 -62.4512 L 58.2031 -60.0098 C 55.7617 -57.959 54.541 -57.7637 51.6113 -57.7637 L 44.3848 -57.7637 C 34.8145 -57.7637 29.1504 -52.0996 29.1504 -42.5293 L 29.1504 -23.9258 Z M 46.6309 -0.878906 C 44.3848 -0.878906 43.3105 -1.75781 43.3105 -4.19922 L 43.3105 -40.2832 C 43.3105 -42.7246 44.3848 -43.6035 46.6309 -43.6035 L 56.9824 -43.6035 C 60.4004 -43.6035 61.7676 -44.043 63.7695 -46.0449 L 66.3086 -48.5352 C 68.2617 -50.4395 69.6289 -50.9766 72.8027 -50.9766 L 81.0059 -50.9766 C 84.1797 -50.9766 85.5469 -50.3906 87.3047 -48.6816 L 90.0391 -46.0449 C 92.041 -44.0918 93.4082 -43.6035 96.8262 -43.6035 L 107.178 -43.6035 C 109.424 -43.6035 110.498 -42.7246 110.498 -40.2832 L 110.498 -4.19922 C 110.498 -1.75781 109.424 -0.878906 107.178 -0.878906 Z M 76.8555 -4.88281 C 87.7441 -4.88281 96.4355 -13.623 96.4355 -24.5117 C 96.4355 -35.4004 87.7441 -44.1406 76.8555 -44.1406 C 66.0156 -44.1406 57.2754 -35.4004 57.2754 -24.5117 C 57.2754 -13.623 66.0156 -4.88281 76.8555 -4.88281 Z M 101.953 -29.541 C 105.029 -29.541 107.471 -31.9824 107.471 -35.0098 C 107.471 -38.0859 105.029 -40.5273 101.953 -40.5273 C 98.877 -40.5273 96.4355 -38.0859 96.4355 -35.0098 C 96.4355 -31.9824 98.877 -29.541 101.953 -29.541 Z M 76.8555 -16.7969 C 72.6074 -16.7969 69.1895 -20.2637 69.1895 -24.5117 C 69.1895 -28.8086 72.6074 -32.2266 76.8555 -32.2266 C 81.1523 -32.2266 84.5215 -28.8086 84.5215 -24.5117 C 84.5215 -20.2637 81.1523 -16.7969 76.8555 -16.7969 Z"/>
  </g>
  <g id="Heavy-S" transform="matrix(1 0 0 1 2570.01 696)">
   <path d="M 24.3652 -10.4492 L 29.3457 -10.4492 L 29.3457 -2.24609 C 29.3457 7.03125 34.6191 12.3047 43.8965 12.3047 L 109.033 12.3047 C 118.262 12.3047 123.584 7.03125 123.584 -2.24609 L 123.584 -42.6758 C 123.584 -51.9043 118.262 -57.1777 109.033 -57.1777 L 101.514 -57.1777 C 101.221 -57.1777 100.928 -57.2266 100.684 -57.2266 L 100.684 -66.5039 C 100.684 -75.7324 95.3613 -81.0547 86.1328 -81.0547 L 24.3652 -81.0547 C 15.0391 -81.0547 9.76562 -75.7812 9.76562 -66.5039 L 9.76562 -25 C 9.76562 -15.7227 15.0391 -10.4492 24.3652 -10.4492 Z M 26.0742 -22.9492 C 23.5352 -22.9492 22.2656 -24.0723 22.2656 -26.8066 L 22.2656 -64.6973 C 22.2656 -67.4316 23.5352 -68.5547 26.0742 -68.5547 L 84.375 -68.5547 C 86.9141 -68.5547 88.2324 -67.4316 88.2324 -64.6973 L 88.2324 -64.502 C 87.0117 -64.8438 85.6934 -64.9902 84.0332 -64.9902 L 68.8965 -64.9902 C 65.1367 -64.9902 62.9395 -64.209 60.6445 -62.1582 L 57.7637 -59.5215 C 55.5176 -57.5195 54.3457 -57.1777 51.416 -57.1777 L 43.8965 -57.1777 C 34.6191 -57.1777 29.3457 -51.9043 29.3457 -42.6758 L 29.3457 -22.9492 Z M 45.6543 -0.195312 C 43.1152 -0.195312 41.7969 -1.31836 41.7969 -4.05273 L 41.7969 -40.8691 C 41.7969 -43.6035 43.1152 -44.7266 45.6543 -44.7266 L 55.957 -44.7266 C 59.375 -44.7266 60.8887 -45.2148 62.8418 -47.2656 L 65.4785 -49.9023 C 67.4805 -51.9531 68.7988 -52.5391 72.0215 -52.5391 L 80.8594 -52.5391 C 84.1309 -52.5391 85.4492 -51.9043 87.3047 -50.0488 L 90.0879 -47.2656 C 92.041 -45.2637 93.5547 -44.7266 96.9727 -44.7266 L 107.275 -44.7266 C 109.814 -44.7266 111.133 -43.6035 111.133 -40.8691 L 111.133 -4.05273 C 111.133 -1.31836 109.814 -0.195312 107.275 -0.195312 Z M 76.416 -4.54102 C 87.4512 -4.54102 96.2891 -13.4277 96.2891 -24.4629 C 96.2891 -35.5469 87.4512 -44.3848 76.416 -44.3848 C 65.4297 -44.3848 56.543 -35.5469 56.543 -24.4629 C 56.543 -13.4277 65.4297 -4.54102 76.416 -4.54102 Z M 102.1 -30.4688 C 105.078 -30.4688 107.471 -32.8613 107.471 -35.8398 C 107.471 -38.8184 105.078 -41.2109 102.1 -41.2109 C 99.0723 -41.2109 96.6797 -38.8184 96.6797 -35.8398 C 96.6797 -32.8613 99.0723 -30.4688 102.1 -30.4688 Z M 76.416 -15.2344 C 71.3379 -15.2344 67.1875 -19.3848 67.1875 -24.4629 C 67.1875 -29.6387 71.3379 -33.7402 76.416 -33.7402 C 81.543 -33.7402 85.6445 -29.6387 85.6445 -24.4629 C 85.6445 -19.3848 81.543 -15.2344 76.416 -15.2344 Z"/>
  </g>
  <g id="Bold-S" transform="matrix(1 0 0 1 2273.89 696)">
   <path d="M 23.6328 -11.2305 L 29.541 -11.2305 L 29.541 -2.53906 C 29.541 6.34766 34.4238 11.1816 43.3594 11.1816 L 108.545 11.1816 C 117.48 11.1816 122.412 6.34766 122.412 -2.53906 L 122.412 -42.8223 C 122.412 -51.709 117.48 -56.5918 108.545 -56.5918 L 100.732 -56.5918 C 99.4629 -56.5918 98.5352 -56.6406 97.7539 -56.8848 L 97.7539 -66.6016 C 97.7539 -75.4883 92.8223 -80.3711 83.8867 -80.3711 L 23.6328 -80.3711 C 14.6484 -80.3711 9.76562 -75.4883 9.76562 -66.6016 L 9.76562 -25 C 9.76562 -16.1133 14.6484 -11.2305 23.6328 -11.2305 Z M 24.8047 -21.8262 C 21.9238 -21.8262 20.3613 -23.2422 20.3613 -26.3184 L 20.3613 -65.332 C 20.3613 -68.4082 21.9238 -69.7754 24.8047 -69.7754 L 82.7148 -69.7754 C 85.5957 -69.7754 87.1582 -68.4082 87.1582 -65.332 L 87.1582 -64.502 C 86.1328 -64.7461 84.9609 -64.8926 83.5938 -64.8438 L 68.3105 -64.8926 C 64.502 -64.8926 62.3535 -63.916 60.2051 -61.8652 L 57.2754 -58.9844 C 55.2246 -57.0312 54.1504 -56.5918 51.1719 -56.5918 L 43.3594 -56.5918 C 34.4238 -56.5918 29.541 -51.709 29.541 -42.8223 L 29.541 -21.8262 Z M 44.5312 0.585938 C 41.6992 0.585938 40.1367 -0.78125 40.1367 -3.85742 L 40.1367 -41.5039 C 40.1367 -44.5801 41.6992 -45.9473 44.5312 -45.9473 L 54.7852 -45.9473 C 58.2031 -45.9473 59.8633 -46.5332 61.8164 -48.584 L 64.5508 -51.4648 C 66.6016 -53.6621 67.8711 -54.248 71.1914 -54.248 L 80.7129 -54.248 C 84.082 -54.248 85.3027 -53.6133 87.3047 -51.5625 L 90.0879 -48.584 C 92.041 -46.582 93.7012 -45.9473 97.1191 -45.9473 L 107.373 -45.9473 C 110.254 -45.9473 111.816 -44.5801 111.816 -41.5039 L 111.816 -3.85742 C 111.816 -0.78125 110.254 0.585938 107.373 0.585938 Z M 75.9277 -4.19922 C 87.1582 -4.19922 96.1426 -13.1836 96.1426 -24.4629 C 96.1426 -35.6934 87.1582 -44.6777 75.9277 -44.6777 C 64.7461 -44.6777 55.7617 -35.6934 55.7617 -24.4629 C 55.7617 -13.1836 64.7461 -4.19922 75.9277 -4.19922 Z M 102.246 -31.543 C 105.127 -31.543 107.52 -33.8379 107.52 -36.7188 C 107.52 -39.6484 105.127 -41.9922 102.246 -41.9922 C 99.3164 -41.9922 96.9727 -39.6484 96.9727 -36.7188 C 96.9727 -33.8379 99.3164 -31.543 102.246 -31.543 Z M 75.9277 -13.4766 C 69.9219 -13.4766 64.9902 -18.3594 64.9902 -24.4629 C 64.9902 -30.5664 69.873 -35.4004 75.9277 -35.4004 C 82.0312 -35.4004 86.9141 -30.5664 86.9141 -24.4629 C 86.9141 -18.3594 82.0312 -13.4766 75.9277 -13.4766 Z"/>
  </g>
  <g id="Semibold-S" transform="matrix(1 0 0 1 1977.59 696)">
   <path d="M 23.0957 -11.7676 L 29.6875 -11.7676 L 29.6875 -2.7832 C 29.6875 5.85938 34.3262 10.4492 43.0176 10.4492 L 108.252 10.4492 C 116.943 10.4492 121.582 5.85938 121.582 -2.7832 L 121.582 -42.9199 C 121.582 -51.5625 116.943 -56.1523 108.252 -56.1523 L 100.195 -56.1523 C 98.0469 -56.1523 96.9238 -56.4453 95.7031 -57.3242 L 95.7031 -66.6992 C 95.7031 -75.3418 91.0645 -79.9316 82.373 -79.9316 L 23.0957 -79.9316 C 14.3555 -79.9316 9.76562 -75.3418 9.76562 -66.6992 L 9.76562 -25 C 9.76562 -16.3574 14.3555 -11.7676 23.0957 -11.7676 Z M 23.877 -21.0938 C 20.752 -21.0938 19.0918 -22.6562 19.0918 -25.9766 L 19.0918 -65.7227 C 19.0918 -69.043 20.752 -70.6055 23.877 -70.6055 L 81.5918 -70.6055 C 84.7168 -70.6055 86.4258 -69.043 86.4258 -65.7227 L 86.4258 -64.4531 C 85.498 -64.6484 84.4727 -64.7461 83.252 -64.7461 L 67.9688 -64.7461 C 64.0137 -64.7461 61.9141 -63.7207 59.8633 -61.6211 L 56.9336 -58.5938 C 55.0293 -56.6895 53.9551 -56.1523 51.0254 -56.1523 L 43.0176 -56.1523 C 34.3262 -56.1523 29.6875 -51.5625 29.6875 -42.9199 L 29.6875 -21.0938 Z M 43.7988 1.12305 C 40.6738 1.12305 38.9648 -0.439453 38.9648 -3.71094 L 38.9648 -41.9434 C 38.9648 -45.2637 40.6738 -46.8262 43.7988 -46.8262 L 54.0039 -46.8262 C 57.4219 -46.8262 59.1797 -47.4609 61.084 -49.5117 L 63.8672 -52.5391 C 66.0156 -54.834 67.1875 -55.4688 70.6055 -55.4688 L 80.6152 -55.4688 C 84.0332 -55.4688 85.2051 -54.7852 87.2559 -52.5879 L 90.1367 -49.5117 C 92.041 -47.4609 93.7988 -46.8262 97.2168 -46.8262 L 107.471 -46.8262 C 110.547 -46.8262 112.256 -45.2637 112.256 -41.9434 L 112.256 -3.71094 C 112.256 -0.439453 110.547 1.12305 107.471 1.12305 Z M 75.6348 -3.95508 C 86.9629 -3.95508 95.9961 -13.0371 95.9961 -24.4141 C 95.9961 -35.791 86.9629 -44.873 75.6348 -44.873 C 64.3066 -44.873 55.2246 -35.791 55.2246 -24.4141 C 55.2246 -13.0371 64.3066 -3.95508 75.6348 -3.95508 Z M 102.344 -32.2266 C 105.176 -32.2266 107.52 -34.5215 107.52 -37.3535 C 107.52 -40.2344 105.176 -42.5293 102.344 -42.5293 C 99.5117 -42.5293 97.168 -40.2344 97.168 -37.3535 C 97.168 -34.5215 99.5117 -32.2266 102.344 -32.2266 Z M 75.6348 -12.2559 C 68.9453 -12.2559 63.4766 -17.6758 63.4766 -24.4141 C 63.4766 -31.1523 68.8965 -36.5723 75.6348 -36.5723 C 82.3242 -36.5723 87.7441 -31.1523 87.7441 -24.4141 C 87.7441 -17.6758 82.3242 -12.2559 75.6348 -12.2559 Z"/>
  </g>
  <g id="Medium-S" transform="matrix(1 0 0 1 1681.2 696)">
   <path d="M 22.7051 -12.1582 L 29.7852 -12.1582 L 29.7852 -2.92969 C 29.7852 5.51758 34.2285 9.86328 42.7246 9.86328 L 108.008 9.86328 C 116.553 9.86328 120.947 5.51758 120.947 -2.92969 L 120.947 -43.0176 C 120.947 -51.4648 116.553 -55.8105 108.008 -55.8105 L 99.7559 -55.8105 C 96.9238 -55.8105 95.8984 -56.3965 94.1895 -58.1543 L 94.1895 -66.748 C 94.1895 -75.1953 89.7461 -79.5898 81.25 -79.5898 L 22.7051 -79.5898 C 14.1602 -79.5898 9.76562 -75.1953 9.76562 -66.748 L 9.76562 -25 C 9.76562 -16.5527 14.1602 -12.1582 22.7051 -12.1582 Z M 23.1934 -20.5078 C 19.9219 -20.5078 18.0664 -22.2168 18.0664 -25.6836 L 18.0664 -66.0645 C 18.0664 -69.5312 19.9219 -71.2402 23.1934 -71.2402 L 80.7617 -71.2402 C 84.0332 -71.2402 85.8887 -69.5312 85.8887 -66.0645 L 85.8887 -64.4531 C 85.0586 -64.5996 84.082 -64.6973 83.0566 -64.6973 L 67.6758 -64.6973 C 63.6719 -64.6973 61.6211 -63.5254 59.6191 -61.4746 L 56.6406 -58.3008 C 54.8828 -56.3965 53.8574 -55.8105 50.9277 -55.8105 L 42.7246 -55.8105 C 34.2285 -55.8105 29.7852 -51.4648 29.7852 -43.0176 L 29.7852 -20.5078 Z M 43.2129 1.5625 C 39.9414 1.5625 38.0859 -0.146484 38.0859 -3.66211 L 38.0859 -42.2852 C 38.0859 -45.752 39.9414 -47.4609 43.2129 -47.4609 L 53.418 -47.4609 C 56.8359 -47.4609 58.6426 -48.1445 60.5469 -50.2441 L 63.3789 -53.3691 C 65.5273 -55.7129 66.6992 -56.3965 70.166 -56.3965 L 80.5176 -56.3965 C 83.9844 -56.3965 85.1562 -55.6641 87.2559 -53.3691 L 90.1367 -50.2441 C 92.041 -48.1445 93.8477 -47.4609 97.2656 -47.4609 L 107.52 -47.4609 C 110.791 -47.4609 112.646 -45.752 112.646 -42.2852 L 112.646 -3.66211 C 112.646 -0.146484 110.791 1.5625 107.52 1.5625 Z M 75.3418 -3.75977 C 86.7676 -3.75977 95.9473 -12.9395 95.9473 -24.4141 C 95.9473 -35.8398 86.7676 -45.0195 75.3418 -45.0195 C 63.9648 -45.0195 54.7852 -35.8398 54.7852 -24.4141 C 54.7852 -12.9395 63.9648 -3.75977 75.3418 -3.75977 Z M 102.441 -32.8125 C 105.225 -32.8125 107.52 -35.0586 107.52 -37.8418 C 107.52 -40.6738 105.225 -42.9199 102.441 -42.9199 C 99.6094 -42.9199 97.3145 -40.6738 97.3145 -37.8418 C 97.3145 -35.0586 99.6094 -32.8125 102.441 -32.8125 Z M 75.3418 -11.3281 C 68.1641 -11.3281 62.3047 -17.1387 62.3047 -24.4141 C 62.3047 -31.6406 68.1641 -37.4512 75.3418 -37.4512 C 82.5684 -37.4512 88.4277 -31.6406 88.4277 -24.4141 C 88.4277 -17.1387 82.5684 -11.3281 75.3418 -11.3281 Z"/>
  </g>
  <g id="Regular-S" transform="matrix(1 0 0 1 1384.88 696)">
   <path d="M 22.2168 -12.6953 L 29.9316 -12.6953 L 29.9316 -3.125 C 29.9316 5.07812 34.082 9.13086 42.3828 9.13086 L 107.715 9.13086 C 116.016 9.13086 120.166 5.07812 120.166 -3.125 L 120.166 -43.1152 C 120.166 -51.3184 116.016 -55.3711 107.715 -55.3711 L 99.2188 -55.3711 C 96.2891 -55.3711 95.3125 -56.0547 93.7012 -57.9102 L 92.1875 -59.6191 L 92.1875 -66.8457 C 92.1875 -75.0488 88.0371 -79.1016 79.7363 -79.1016 L 22.2168 -79.1016 C 13.8672 -79.1016 9.76562 -75.0488 9.76562 -66.8457 L 9.76562 -24.9512 C 9.76562 -16.748 13.8672 -12.6953 22.2168 -12.6953 Z M 22.3145 -19.7266 C 18.7988 -19.7266 16.7969 -21.6309 16.7969 -25.3418 L 16.7969 -66.4551 C 16.7969 -70.166 18.7988 -72.0703 22.3145 -72.0703 L 79.6387 -72.0703 C 83.1543 -72.0703 85.1562 -70.166 85.1562 -66.4551 L 85.1562 -64.4043 C 84.4238 -64.5508 83.6426 -64.5996 82.7148 -64.5996 L 67.2852 -64.5996 C 63.2324 -64.5996 61.1816 -63.3301 59.3262 -61.2793 L 56.2988 -57.9102 C 54.6875 -56.1035 53.7109 -55.3711 50.7812 -55.3711 L 42.3828 -55.3711 C 34.082 -55.3711 29.9316 -51.3184 29.9316 -43.1152 L 29.9316 -19.7266 Z M 42.4805 2.09961 C 38.9648 2.09961 36.9629 0.195312 36.9629 -3.51562 L 36.9629 -42.7246 C 36.9629 -46.4355 38.9648 -48.3398 42.4805 -48.3398 L 52.6367 -48.3398 C 56.0547 -48.3398 57.959 -49.0234 59.8633 -51.1719 L 62.7441 -54.3945 C 64.9414 -56.8359 66.0645 -57.5684 69.5801 -57.5684 L 80.4199 -57.5684 C 83.9355 -57.5684 85.0586 -56.8359 87.2559 -54.3945 L 90.1855 -51.1719 C 92.041 -49.0234 93.9453 -48.3398 97.4121 -48.3398 L 107.617 -48.3398 C 111.084 -48.3398 113.086 -46.4355 113.086 -42.7246 L 113.086 -3.51562 C 113.086 0.195312 111.084 2.09961 107.617 2.09961 Z M 75.0488 -3.51562 C 86.5723 -3.51562 95.8008 -12.793 95.8008 -24.3652 C 95.8008 -35.9375 86.5723 -45.2148 75.0488 -45.2148 C 63.4766 -45.2148 54.248 -35.9375 54.248 -24.3652 C 54.248 -12.793 63.4766 -3.51562 75.0488 -3.51562 Z M 102.539 -33.4961 C 105.273 -33.4961 107.52 -35.7422 107.52 -38.4766 C 107.52 -41.2598 105.273 -43.457 102.539 -43.457 C 99.8047 -43.457 97.5098 -41.2598 97.5098 -38.4766 C 97.5098 -35.7422 99.8047 -33.4961 102.539 -33.4961 Z M 75.0488 -10.1074 C 67.2363 -10.1074 60.791 -16.4551 60.791 -24.3652 C 60.791 -32.2754 67.1875 -38.623 75.0488 -38.623 C 82.9102 -38.623 89.2578 -32.2754 89.2578 -24.3652 C 89.2578 -16.4551 82.9102 -10.1074 75.0488 -10.1074 Z"/>
  </g>
  <g id="Light-S" transform="matrix(1 0 0 1 1089.19 696)">
   <path d="M 21.3867 -12.7441 L 28.4668 -12.7441 L 28.4668 -2.68555 C 28.4668 4.93164 32.373 8.83789 40.0879 8.83789 L 106.494 8.83789 C 114.209 8.83789 118.115 4.93164 118.115 -2.68555 L 118.115 -42.8223 C 118.115 -50.3906 114.209 -54.2969 106.494 -54.2969 L 97.168 -54.2969 C 94.1895 -54.2969 93.2617 -54.7852 91.6016 -56.6406 L 91.6016 -66.0156 C 91.6016 -73.584 87.6953 -77.4902 79.9805 -77.4902 L 21.3867 -77.4902 C 13.6719 -77.4902 9.76562 -73.6328 9.76562 -66.0156 L 9.76562 -24.2676 C 9.76562 -16.6016 13.6719 -12.7441 21.3867 -12.7441 Z M 21.4844 -18.2129 C 17.4316 -18.2129 15.1855 -20.3613 15.1855 -24.5605 L 15.1855 -65.7227 C 15.1855 -69.9219 17.4316 -72.0703 21.4844 -72.0703 L 79.8828 -72.0703 C 83.8867 -72.0703 86.1816 -69.9219 86.1816 -65.7227 L 86.1816 -62.1582 C 84.7656 -63.0371 83.1055 -63.4766 80.6152 -63.4766 L 65.5273 -63.4766 C 61.6699 -63.4766 59.8145 -62.4512 57.8613 -60.3027 L 54.7363 -56.8359 C 52.9785 -54.834 52.0508 -54.2969 49.0234 -54.2969 L 40.0879 -54.2969 C 32.373 -54.2969 28.4668 -50.3906 28.4668 -42.8223 L 28.4668 -18.2129 Z M 40.1855 3.36914 C 36.1816 3.36914 33.8867 1.2207 33.8867 -2.97852 L 33.8867 -42.5293 C 33.8867 -46.7285 36.1816 -48.877 40.1855 -48.877 L 50.293 -48.877 C 53.7598 -48.877 55.5176 -49.4629 57.4707 -51.6602 L 60.5469 -55.0781 C 62.7441 -57.5195 63.8672 -58.0566 67.1387 -58.0566 L 79.0527 -58.0566 C 82.3242 -58.0566 83.4473 -57.5195 85.5957 -55.0781 L 88.6719 -51.6602 C 90.625 -49.4629 92.4316 -48.877 95.8984 -48.877 L 106.396 -48.877 C 110.4 -48.877 112.695 -46.7285 112.695 -42.5293 L 112.695 -2.97852 C 112.695 1.2207 110.4 3.36914 106.396 3.36914 Z M 73.291 -3.07617 C 84.9121 -3.07617 94.2383 -12.4023 94.2383 -24.0723 C 94.2383 -35.7422 84.9121 -45.0684 73.291 -45.0684 C 61.6699 -45.0684 52.3438 -35.7422 52.3438 -24.0723 C 52.3438 -12.4023 61.6699 -3.07617 73.291 -3.07617 Z M 100.781 -33.5938 C 103.271 -33.5938 105.322 -35.5957 105.322 -38.0859 C 105.322 -40.625 103.271 -42.627 100.781 -42.627 C 98.291 -42.627 96.2402 -40.625 96.2402 -38.0859 C 96.2402 -35.5957 98.291 -33.5938 100.781 -33.5938 Z M 73.291 -8.25195 C 64.5996 -8.25195 57.5195 -15.2832 57.5195 -24.0723 C 57.5195 -32.8613 64.5508 -39.8926 73.291 -39.8926 C 82.0312 -39.8926 89.0625 -32.8613 89.0625 -24.0723 C 89.0625 -15.2832 82.0312 -8.25195 73.291 -8.25195 Z"/>
  </g>
  <g id="Thin-S" transform="matrix(1 0 0 1 793.825 696)">
   <path d="M 20.3125 -12.8418 L 26.5625 -12.8418 L 26.5625 -2.09961 C 26.5625 4.73633 30.1758 8.39844 37.1094 8.39844 L 104.883 8.39844 C 111.816 8.39844 115.43 4.73633 115.43 -2.09961 L 115.43 -42.3828 C 115.43 -49.2188 111.816 -52.8809 104.883 -52.8809 L 94.3848 -52.8809 C 92.7246 -52.8809 91.6992 -52.9785 90.8203 -53.3691 L 90.8203 -64.8926 C 90.8203 -71.7285 87.207 -75.3906 80.2734 -75.3906 L 20.3125 -75.3906 C 13.3789 -75.3906 9.76562 -71.7773 9.76562 -64.8926 L 9.76562 -23.3398 C 9.76562 -16.4551 13.3789 -12.8418 20.3125 -12.8418 Z M 20.4102 -16.1621 C 15.625 -16.1621 13.0859 -18.6523 13.0859 -23.5352 L 13.0859 -64.6973 C 13.0859 -69.5801 15.625 -72.0703 20.4102 -72.0703 L 80.1758 -72.0703 C 84.8145 -72.0703 87.5 -69.5801 87.5 -64.6973 L 87.5 -56.3965 L 85.1562 -59.0332 C 83.1055 -61.2793 81.543 -62.0117 77.832 -62.0117 L 63.2812 -62.0117 C 59.5703 -62.0117 58.0078 -61.2793 55.957 -59.0332 L 52.6367 -55.3711 C 50.7324 -53.2227 49.8535 -52.8809 46.7285 -52.8809 L 37.1094 -52.8809 C 30.1758 -52.8809 26.5625 -49.2188 26.5625 -42.3828 L 26.5625 -16.1621 Z M 37.207 5.12695 C 32.5195 5.12695 29.834 2.58789 29.834 -2.24609 L 29.834 -42.2363 C 29.834 -47.0703 32.5195 -49.6094 37.207 -49.6094 L 47.2168 -49.6094 C 50.6836 -49.6094 52.3438 -50 54.3457 -52.2949 L 57.666 -55.957 C 59.8145 -58.3496 60.9375 -58.6914 63.8672 -58.6914 L 77.2461 -58.6914 C 80.1758 -58.6914 81.2988 -58.3496 83.4473 -55.957 L 86.7188 -52.2949 C 88.7695 -50 90.3809 -49.6094 93.8965 -49.6094 L 104.785 -49.6094 C 109.424 -49.6094 112.109 -47.0703 112.109 -42.2363 L 112.109 -2.24609 C 112.109 2.58789 109.424 5.12695 104.785 5.12695 Z M 70.9961 -2.53906 C 82.7148 -2.53906 92.1387 -11.9141 92.1387 -23.7305 C 92.1387 -35.498 82.7637 -44.9219 70.9961 -44.9219 C 59.2773 -44.9219 49.8535 -35.498 49.8535 -23.7305 C 49.8535 -11.9141 59.2773 -2.53906 70.9961 -2.53906 Z M 70.9961 -5.81055 C 61.1328 -5.81055 53.125 -13.8184 53.125 -23.7305 C 53.125 -33.6426 61.1328 -41.6504 70.9961 -41.6504 C 80.8594 -41.6504 88.8184 -33.6426 88.8184 -23.7305 C 88.8184 -13.8184 80.8594 -5.81055 70.9961 -5.81055 Z M 98.4863 -33.6914 C 100.635 -33.6914 102.393 -35.4492 102.393 -37.5977 C 102.393 -39.7949 100.635 -41.5039 98.4863 -41.5039 C 96.3379 -41.5039 94.5801 -39.7949 94.5801 -37.5977 C 94.5801 -35.4492 96.3379 -33.6914 98.4863 -33.6914 Z"/>
  </g>
  <g id="Ultralight-S" transform="matrix(1 0 0 1 497.821 696)">
   <path d="M 19.7754 -12.8906 L 25.5859 -12.8906 L 25.5859 -1.75781 C 25.5859 4.63867 29.0039 8.20312 35.5469 8.20312 L 104.053 8.20312 C 110.596 8.20312 114.014 4.63867 114.014 -1.75781 L 114.014 -42.1875 C 114.014 -48.6328 110.596 -52.1484 104.053 -52.1484 L 92.9688 -52.1484 C 91.8945 -52.1484 91.0645 -52.1973 90.4297 -52.2949 L 90.4297 -64.3066 C 90.4297 -70.752 86.9629 -74.2676 80.4199 -74.2676 L 19.7754 -74.2676 C 13.2324 -74.2676 9.76562 -70.8008 9.76562 -64.3066 L 9.76562 -22.8516 C 9.76562 -16.3086 13.2324 -12.8906 19.7754 -12.8906 Z M 19.873 -15.0879 C 14.6484 -15.0879 11.9629 -17.7734 11.9629 -22.998 L 11.9629 -64.1602 C 11.9629 -69.3848 14.6484 -72.0703 19.873 -72.0703 L 80.3223 -72.0703 C 85.3516 -72.0703 88.2324 -69.3848 88.2324 -64.1602 L 88.2324 -53.3203 C 87.8418 -53.6621 87.4023 -54.0527 86.9141 -54.6387 L 83.5449 -58.3984 C 81.4453 -60.6934 79.9805 -61.2793 76.416 -61.2793 L 62.1094 -61.2793 C 58.4961 -61.2793 57.0312 -60.6934 54.9805 -58.3984 L 51.5625 -54.6387 C 49.5605 -52.3926 48.6816 -52.1484 45.5566 -52.1484 L 35.5469 -52.1484 C 29.0039 -52.1484 25.5859 -48.6328 25.5859 -42.1875 L 25.5859 -15.0879 Z M 35.6445 6.00586 C 30.6641 6.00586 27.7832 3.32031 27.7832 -1.9043 L 27.7832 -42.0898 C 27.7832 -47.2656 30.6641 -49.9512 35.6445 -49.9512 L 45.6055 -49.9512 C 49.1211 -49.9512 50.6836 -50.293 52.7832 -52.5879 L 56.1523 -56.3965 C 58.3008 -58.7891 59.4238 -59.0332 62.207 -59.0332 L 76.2695 -59.0332 C 79.0527 -59.0332 80.1758 -58.7891 82.3242 -56.3965 L 85.7422 -52.5879 C 87.793 -50.293 89.3555 -49.9512 92.8711 -49.9512 L 103.955 -49.9512 C 108.936 -49.9512 111.816 -47.2656 111.816 -42.0898 L 111.816 -1.9043 C 111.816 3.32031 108.936 6.00586 103.955 6.00586 Z M 69.8242 -2.19727 C 81.543 -2.19727 91.0645 -11.6699 91.0645 -23.5352 C 91.0645 -35.4004 81.6406 -44.8242 69.8242 -44.8242 C 58.0566 -44.8242 48.5352 -35.4004 48.5352 -23.5352 C 48.5352 -11.6699 58.0566 -2.19727 69.8242 -2.19727 Z M 69.8242 -4.54102 C 59.3262 -4.54102 50.9277 -13.0371 50.9277 -23.5352 C 50.9277 -34.0332 59.3262 -42.5293 69.8242 -42.5293 C 80.2734 -42.5293 88.7207 -34.0332 88.7207 -23.5352 C 88.7207 -13.0371 80.2734 -4.54102 69.8242 -4.54102 Z M 97.3145 -33.7891 C 99.2676 -33.7891 100.879 -35.3516 100.879 -37.3535 C 100.879 -39.3555 99.2676 -40.9668 97.3145 -40.9668 C 95.3125 -40.9668 93.7012 -39.3555 93.7012 -37.3535 C 93.7012 -35.3516 95.3125 -33.7891 97.3145 -33.7891 Z"/>
  </g>
 </g>
</svg>
